<svg xmlns="http://www.w3.org/2000/svg" width="512" height="512" viewBox="0 0 512 512" version="1.1">
	<path d="M 232.100 94.993 C 223.522 97.303, 217.278 100.692, 213.645 105.010 C 208.736 110.844, 208.952 112.350, 219.046 142.696 C 224.133 157.988, 228.501 171.063, 228.754 171.750 C 229.119 172.742, 215.013 173, 160.317 173 C 101.440 173, 90.558 173.224, 85.495 174.543 C 37.109 187.146, 7.085 262.317, 21.969 333.593 C 30.696 375.385, 54.305 407.826, 82.316 416.516 C 90.403 419.024, 90.849 419.051, 119.980 418.777 L 149.460 418.500 151.480 415.289 L 153.500 412.077 163.250 412.039 C 170.647 412.009, 173 412.317, 173 413.311 C 173 414.033, 173.918 415.608, 175.039 416.811 C 176.923 418.834, 178.012 419, 189.384 419 C 202.335 419, 203.603 418.582, 205.317 413.750 C 205.846 412.258, 207.270 412, 214.969 412 C 221.753 412, 224 412.326, 224 413.311 C 224 414.033, 224.925 415.616, 226.057 416.830 L 228.113 419.038 326.807 418.769 L 425.500 418.500 431.432 416.262 C 440.943 412.673, 447.866 408.054, 456.554 399.500 C 466.231 389.973, 471.577 382.282, 478.013 368.630 C 489.857 343.503, 494.697 319.491, 493.660 291 C 492.778 266.772, 488.938 248.266, 480.889 229.454 C 470.511 205.201, 456.395 188.441, 438.749 179.424 C 428.553 174.213, 422.516 173, 406.790 173 C 394.333 173, 392.807 173.193, 391 175 C 389.900 176.100, 389 177.675, 389 178.500 C 389 179.709, 387.442 180, 380.975 180 C 373.389 180, 372.900 179.867, 372.023 177.561 C 370.504 173.566, 368.030 173.002, 351.816 172.957 L 336.500 172.915 312.123 138.372 C 295.325 114.568, 286.490 102.919, 283.708 100.903 C 276.726 95.846, 268.224 93.756, 253 93.356 C 241.868 93.063, 238.202 93.350, 232.100 94.993 M 242.500 107.632 C 237.414 108.418, 228.685 111.107, 226.695 112.501 C 224.878 113.774, 224.903 113.890, 227.339 115.487 C 231.771 118.390, 240.130 119.976, 251 119.976 C 261.870 119.976, 270.229 118.390, 274.661 115.487 C 277.080 113.902, 277.111 113.766, 275.335 112.522 C 270.349 109.030, 251.560 106.232, 242.500 107.632 M 91 188.035 C 84.405 189.396, 73.245 195.250, 67.356 200.438 C 53.280 212.838, 41.572 235.794, 35.846 262.218 C 32.915 275.743, 32.186 305.592, 34.417 320.765 C 42.201 373.705, 72.775 409.792, 105.067 404.155 C 132.261 399.408, 153.942 369.807, 162.678 325.500 C 165.190 312.760, 165.156 280.480, 162.617 266.500 C 154.415 221.345, 130.074 189.744, 101.836 187.590 C 98.351 187.324, 93.475 187.525, 91 188.035 M 93.045 212.117 C 77.609 215.057, 63.442 230.421, 55.846 252.459 C 50.568 267.773, 49.527 274.845, 49.513 295.500 C 49.495 321.582, 52.538 335.680, 58.435 336.839 C 61.492 337.439, 64.934 336.031, 66.591 333.501 C 68.065 331.251, 68.073 330.391, 66.677 323.767 C 64.106 311.561, 63.889 309.355, 63.912 295.698 C 63.956 269.187, 70.950 246.480, 82.762 234.499 C 88.190 228.993, 91.472 227.171, 97.433 226.354 C 102.835 225.614, 106 222.923, 106 219.072 C 106 213.188, 101.135 210.577, 93.045 212.117 M 117 226 C 114 229, 114.493 233.290, 118.475 238.833 C 120.387 241.494, 123.382 246.782, 125.131 250.585 C 129.259 259.563, 130.573 261, 134.655 261 C 138.839 261, 142 258.008, 142 254.048 C 142 250.253, 132.908 232.382, 128.565 227.641 C 124.673 223.392, 120.238 222.762, 117 226 M 94.500 247.963 C 86.074 251.487, 76.205 274.570, 79.775 282.404 C 81.119 285.355, 85.162 286.681, 88.853 285.383 C 91.494 284.454, 92.160 283.077, 95.413 271.828 C 96.315 268.709, 97.877 265.139, 98.884 263.895 L 100.714 261.634 102.266 264.067 C 105.095 268.504, 107.086 276.234, 108.153 286.930 C 109.419 299.617, 110.144 301.724, 113.709 303.080 C 117.071 304.358, 120.224 303.114, 122.525 299.603 C 123.964 297.407, 124.025 295.809, 123.044 286.004 C 121.159 267.141, 115.637 253.798, 107.720 248.971 C 104.389 246.940, 98.094 246.460, 94.500 247.963 M 136.073 291.635 C 134.518 293.612, 134 295.716, 134 300.062 C 134 313.764, 129.753 332.312, 123.762 344.780 C 117.838 357.108, 106.990 366.031, 98 365.972 C 91.532 365.930, 83.121 359.179, 75.291 347.745 C 71.407 342.071, 68.025 340.848, 64.163 343.719 C 59.921 346.873, 60.112 351.325, 64.799 358.523 C 75.838 375.475, 91.634 383.417, 106.490 379.486 C 127.152 374.017, 142.914 349.258, 147.542 315 C 149.573 299.970, 149.438 294.826, 146.927 291.635 C 145.424 289.724, 143.933 289, 141.500 289 C 139.067 289, 137.576 289.724, 136.073 291.635 M 80 300 C 74.396 305.604, 81.498 333.962, 90.481 341.850 C 96.625 347.244, 104.647 347.064, 107.194 341.474 C 108.929 337.665, 107.185 333.845, 102.756 331.756 C 100.722 330.796, 98.406 328.751, 97.609 327.211 C 95.830 323.772, 93.399 314.289, 92.490 307.249 C 91.981 303.304, 91.180 301.500, 89.271 299.999 C 86.033 297.452, 82.548 297.452, 80 300" stroke="none" fill="black" fill-rule="evenodd"/>
</svg>