<!--?xml version="1.0" encoding="utf-8"?-->
<!-- Generator: Adobe Illustrator 16.0.0, SVG Export Plug-In . SVG Version: 6.00 Build 0)  -->

<svg version="1.1" id="圖層_1" xmlns="http://www.w3.org/2000/svg" xmlns:xlink="http://www.w3.org/1999/xlink" x="0px" y="0px" width="595.28px" height="841.89px" viewBox="0 0 595.28 841.89" enable-background="new 0 0 595.28 841.89" xml:space="preserve" style="">
<g>
	<path fill-rule="evenodd" clip-rule="evenodd" fill="none" stroke="#000000" stroke-width="4" stroke-miterlimit="10" d="
		M292.039,74.311c-5.756,5.33-10.842,10.273-16.189,14.917c-4.394,3.815-9,7.406-13.693,10.85c-4.359,3.198-5.835,2.653-7.581-2.226
		c-0.988-2.761-3.205-5.899-2.544-8.198c0.636-2.21,4.383-3.427,6.563-5.312c5.763-4.985,11.418-10.096,17.116-15.156
		c-0.164-0.414-0.327-0.827-0.49-1.24c-2.636,0.293-5.323,1.047-7.895,0.759c-2.927-0.328-7.225-0.759-8.273-2.631
		c-1.59-2.838-1.047-6.962-0.988-10.532c0.009-0.527,2.632-1.764,3.548-1.405c8.102,3.179,15.281-0.732,22.712-2.642
		c2.09-0.537,4.291-1.009,6.118-2.069c1.35-0.783,3.287-2.882,2.997-3.666c-0.563-1.516-2.404-2.688-3.935-3.655
		c-0.722-0.457-2.093,0.196-2.922-0.188c-2.035-0.943-4.986-1.802-5.591-3.43c-0.66-1.778,0.358-4.793,1.652-6.51
		c1.292-1.714,3.789-2.567,5.835-3.65c1.904-1.008,3.936-1.774,5.868-2.731c10.263-5.083,10.259-5.093,18.292,2.688
		c3.23,3.13,2.879,5.609-1.129,7.719c-0.73,0.384-1.699,0.447-2.275,0.97c-1.268,1.149-2.357,2.496-3.52,3.763
		c1.773,0.723,3.795,2.39,5.273,1.999c5.473-1.447,10.584-0.797,15.576,1.42c2.16,0.96,4.102,2.412,6.145,3.64
		c-0.074,0.462-0.148,0.925-0.223,1.388c-6.238,1.874-12.416,3.989-18.727,5.568c-10.012,2.504-11.055,3.493-11.357,13.682
		c-0.135,4.582-0.021,9.171-0.021,13.751c5.164-0.761,9.074-1.795,12.971-1.751c2.67,0.03,5.605,1.122,7.887,2.578
		c1.479,0.944,2.799,3.395,2.811,5.18c0.09,12.819-0.166,25.642-0.332,38.462c-0.053,4.06,0.211,8.233-3.586,11.906
		c-3.4-5.138-6.543-9.888-9.844-14.876c-7.688,1.628-15.771,3.212-23.781,5.098c-3.228,0.76-5.855,0.147-7.225-2.708
		c-1.831-3.815-4.002-7.839-4.34-11.913c-0.519-6.246,0.123-12.641,0.782-18.919c0.759-7.224,4.127-8.945,11.293-7.034
		c1.186,0.316,4.229-1.61,4.271-2.593C293.434,82.237,292.628,78.823,292.039,74.311z" class="dxdICJyl_0"></path>
	<path fill-rule="evenodd" clip-rule="evenodd" fill="none" stroke="#000000" stroke-width="4" stroke-miterlimit="10" d="
		M311.725,101.226c-3.313,1.795-6.02,3.223-8.689,4.719c-3.461,1.938-7.105,3.652-10.226,6.043
		c-1.189,0.911-1.148,3.427-1.668,5.212c1.457,0.29,2.946,0.934,4.365,0.805c5.089-0.462,10.181-1.035,15.204-1.936
		c1.041-0.187,2.549-1.948,2.564-3.004c0.121-7.465-0.064-14.937-0.213-22.405c-0.053-2.678-0.992-4.175-4.049-2.85
		c-4.74,2.056-9.688,3.696-14.239,6.098c-1.836,0.969-2.857,3.48-4.919,6.161C297.758,100.754,304.414,94.793,311.725,101.226z" class="dxdICJyl_1"></path>
	<path fill-rule="evenodd" clip-rule="evenodd" fill="none" stroke="#000000" stroke-width="4" stroke-miterlimit="10" d="
		M318.531,68.516c-5.189-1.459-9.389-2.641-14.131-3.975c8.479-6.494,33.004-1.81,38.275,6.826
		c-4.947,3.398-10.309,0.472-15.346,1.076c-5.209,0.625-10.4,1.395-16.127,1.234C313.342,72.17,315.48,70.664,318.531,68.516z" class="dxdICJyl_2"></path>
</g>
<g>
	<path fill-rule="evenodd" clip-rule="evenodd" fill="none" stroke="#000000" stroke-width="4" stroke-miterlimit="10" d="
		M297.382,198.171c6.582,3.357,15.774-0.367,18.861-7.347c2.453-5.543,5.439-6.691,12.954-4.28c-1.454,1.634-2.53,3.089-3.847,4.276
		c-4.545,4.104-9.24,8.043-13.747,12.188c-3.163,2.91-2.222,5.507,1.008,7.74c7.541,5.215,15.188,10.063,24.356,12.185
		c5.488,1.27,10.754,3.511,16.119,5.316c-0.138,0.892-0.274,1.783-0.412,2.675c-7.639,0.299-15.69,2.23-22.803,0.438
		c-7.102-1.791-13.264-7.311-20.213-11.417c0.115,1.804,0.301,3.854,0.369,5.909c0.246,7.306,0.715,14.617,0.586,21.918
		c-0.092,5.131-2.569,7.025-7.541,5.688c-5.344-1.438-10.539-3.527-15.637-5.713c-1.576-0.676-2.619-2.594-3.905-3.943
		c0.172-0.468,0.343-0.936,0.515-1.403c3.084,0,6.169,0.084,9.248-0.02c5.117-0.172,8.945-2.668,9.448-7.795
		c0.603-6.143,0.142-12.391,0.142-18.593c-0.428-0.124-0.857-0.249-1.286-0.374c-3.021,4.382-5.796,8.963-9.128,13.094
		c-3.805,4.718-8.063,9.076-12.246,13.474c-0.487,0.513-2.344,0.665-2.559,0.333c-1.041-1.608-2.668-3.613-2.378-5.157
		c0.853-4.546,2.376-8.812,6.991-11.465c3.033-1.743,5.398-4.649,8.063-7.035c-0.568-0.64-1.136-1.279-1.703-1.918
		c-3.111,2.46-6.245,4.893-9.32,7.396c-1.029,0.838-1.809,1.999-2.882,2.759c-1.646,1.164-3.446,2.108-5.181,3.146
		c-0.828-1.821-1.656-3.643-2.679-5.892c-3.051,5.317-5.966,10.858-9.363,16.084c-1.291,1.984-3.694,3.246-5.591,4.837
		c-1.031-2.567-2.782-5.095-2.93-7.712c-0.232-4.117-0.314-8.172,3.364-11.819c3.505-3.476,1.949-8.729-1.669-12.251
		c-1.212-1.18-2.106-3.637-1.788-5.241c0.693-3.499,2.103-6.893,3.518-10.202c1.138-2.659,2.715-5.132,4.821-9.026
		c-3.643,0.351-5.923,0.187-7.937,0.842c-4.729,1.537-9.681-2.293-8.975-7.43c0.778-5.671,2.03-10.777,6.919-15.109
		c5.39-4.775,9.476-11.075,13.863-16.911c2.717-3.613,4.07-3.81,7.309-0.455c5.108,5.291,4.834,10.876-0.727,20.468
		c-1.386,2.392-3.655,4.295-5.629,6.314c-1.833,1.876-3.813,3.607-5.998,5.655c1.474,1.367,2.679,2.432,3.825,3.558
		c4.632,4.546,5.359,9.871,2.136,15.418c-4.486,7.723-4.486,7.723-0.846,18.086c4.129-5.74,7.779-10.816,11.43-15.893
		c0.502,0.111,1.002,0.224,1.503,0.335c-0.931,4.586-1.86,9.172-2.79,13.758c0.32,0.2,0.642,0.399,0.963,0.6
		c1.201-2.033,3.764-4.399,3.363-6.041c-1.551-6.35,2.077-9.657,6.164-13.022c1.246-1.026,2.422-2.14,3.251-4.183
		c-4.354,1.141-8.673,2.463-13.081,3.325c-1.566,0.306-3.864,0.013-4.869-0.979c-0.768-0.757-0.551-3.38,0.198-4.555
		c0.689-1.08,2.706-1.934,4.081-1.857c9.75,0.54,17.561-3.657,24.687-9.968c-1.056,0.159-2.123,0.263-3.165,0.485
		c-7.938,1.692-11.187-1.267-12.068-9.656c-0.504-4.783-0.898-10.218,4.447-13.805c2.188-1.469,3.234-4.57,4.984-6.784
		c1.322-1.672,2.708-3.472,4.463-4.59c4.807-3.061,8.48-1.451,9.27,4.143c0.555,3.932,1.506,6.564,6.205,4.816
		c0.293-0.109,0.689-0.106,0.989-0.007c3.222,1.066,7.92,1.301,9.201,3.51c1.128,1.945-1.347,6.202-2.653,9.257
		c-0.83,1.94-2.426,3.557-3.692,5.308c-1.247,1.723-2.513,3.432-4.041,5.514c8.349,1.342,15.181-5.72,24.733-2.874
		c-2.328,1.656-3.498,2.955-4.938,3.432c-6.129,2.028-12.276,4.063-18.534,5.626C305.135,187.31,300.859,190.518,297.382,198.171z" class="dxdICJyl_3"></path>
	<path fill-rule="evenodd" clip-rule="evenodd" fill="none" stroke="#000000" stroke-width="4" stroke-miterlimit="10" d="
		M300.38,211.631c0.387-3.204-2.231-6.565-6.43-7.132c-4.539-0.613-8.305,4.238-8.762,10.588
		C289.833,214.03,294.718,212.919,300.38,211.631z" class="dxdICJyl_4"></path>
	<path fill-rule="evenodd" clip-rule="evenodd" fill="none" stroke="#000000" stroke-width="4" stroke-miterlimit="10" d="
		M296.253,172.959c7.865,1.875,12.654-2.303,12.506-9.777C300.825,161.552,300.851,169.476,296.253,172.959z" class="dxdICJyl_5"></path>
</g>
<g>
	<path fill-rule="evenodd" clip-rule="evenodd" fill="none" stroke="#000000" stroke-width="4" stroke-miterlimit="10" d="
		M318.41,280.078c-10.732,1.657-18.834,7.535-25.918,14.803c-3.45,3.54-5.912,8.024-9.151,11.797
		c-1.074,1.252-3.637,2.683-4.733,2.21c-4.772-2.057-6.088,1.239-6.379,4.282c-0.974,10.162-6.287,18.46-10.883,27.068
		c-2.106,3.946-4.537,7.762-7.191,11.363c-2.688,3.648-6.483,3.314-7.301-0.997c-1.146-6.043-1.283-12.397-0.933-18.566
		c0.269-4.736,2.569-9.356,2.836-14.092c0.243-4.322-0.693-8.812-1.728-13.078c-1.253-5.166-3.043-10.171,0.628-15.284
		c7.288,13.173,11.266,26.559,5.053,41.43c0.485,0.093,0.971,0.186,1.455,0.279c1.389-1.525,2.893-2.962,4.142-4.594
		c2.525-3.299,4.801-6.792,7.38-10.045c4.597-5.799,7.761-11.543,4.511-19.478c-1.074-2.624,0.761-6.508,1.481-9.769
		c0.341-1.545,1.188-2.979,2.084-5.134c-2.479,0-4.242-0.045-6.003,0.009c-3.804,0.117-7.309,0.166-5.775-5.531
		c0.281-1.045-1.194-2.522-1.749-3.846c-0.453-1.082-1.368-2.735-0.963-3.239c0.656-0.818,2.22-1.221,3.411-1.245
		c6.689-0.131,10.925,3.131,12.229,10.398c1.244-1.391,1.782-2.274,2.561-2.804c1.526-1.04,3.511-2.926,4.714-2.553
		c1.613,0.5,3.503,2.665,3.801,4.372c0.903,5.168,3.166,5.521,7.538,3.65c6.702-2.868,13.652-5.157,20.496-7.696
		c5.524-2.05,11.155-2.625,16.371,0.442c1.879,1.104,3.545,3.532,4.009,5.642c0.202,0.922-2.656,3.081-4.472,3.788
		c-8.976,3.495-18.269,6.557-23.857,15.129c-2.454,3.765-3.735,8.271-5.872,12.269c-6.814,12.752-13.714,25.46-20.767,38.081
		c-0.919,1.644-2.924,2.681-4.426,3.999c-0.974-1.829-2.609-3.594-2.794-5.5c-0.535-5.524-0.312-10.437,3.494-15.757
		c5.408-7.563,8.814-16.621,12.604-25.247c1.469-3.342,2.461-6.09,6.873-5.545c1.093,0.135,2.563-0.734,3.479-1.563
		c6.042-5.468,12.003-11.028,17.927-16.626C317.382,282.154,317.813,281.028,318.41,280.078z" class="dxdICJyl_6"></path>
	<path fill-rule="evenodd" clip-rule="evenodd" fill="none" stroke="#000000" stroke-width="4" stroke-miterlimit="10" d="
		M348.978,336.97c0,4.61,0.491,9.298-0.229,13.793c-0.313,1.957-2.89,4.674-4.822,5.044c-6.656,1.276-13.468,2.071-20.246,2.313
		c-13.194,0.47-23.187-10.325-21.893-23.63c0.672-6.902,2.202-13.719,3.283-20.584c0.384-2.433,0.85-4.899,0.8-7.341
		c-0.055-2.723,0.321-4.75,3.611-4.521c2.992,0.209,6.462,0.192,6.464,4.438c0.001,2.256-0.963,4.501-1.378,6.772
		c-1.577,8.613-3.582,17.185-4.499,25.87c-0.661,6.261,1.963,8.471,8.276,8.121c16.523-0.916,21.364-6.81,21.62-21.099
		c0.041-2.31,0.128-4.722,0.83-6.88c0.414-1.27,2.081-2.132,3.184-3.178c0.927,1.048,2.449,1.98,2.68,3.165
		c1.14,5.847,1.938,11.76,2.855,17.649C349.336,336.925,349.156,336.948,348.978,336.97z" class="dxdICJyl_7"></path>
</g>
<g>
	<path fill-rule="evenodd" clip-rule="evenodd" fill="none" stroke="#000000" stroke-width="4" stroke-miterlimit="10" d="
		M274.718,415.775c-3.298,0.374-6.644,1.256-9.879,0.953c-2.337-0.219-5.919-1.538-6.487-3.206
		c-1.104-3.239-0.586-7.075-0.407-10.646c0.02-0.375,2.53-1.244,3.453-0.856c7.549,3.18,14.313-0.458,21.279-2.209
		c2.572-0.646,5.214-1.333,7.533-2.556c1.335-0.704,3.023-2.656,2.856-3.796c-0.192-1.31-2.122-2.585-3.563-3.41
		c-0.892-0.511-2.403,0.157-3.417-0.251c-1.956-0.791-4.839-1.594-5.351-3.078c-0.654-1.902,0.209-4.719,1.265-6.686
		c0.758-1.411,2.837-2.202,4.445-3.04c2.503-1.304,5.138-2.353,7.663-3.616c9.927-4.965,9.919-4.981,17.901,2.518
		c3.678,3.454,3.223,6.07-1.441,8.227c-0.602,0.279-1.402,0.317-1.826,0.748c-1.195,1.213-2.24,2.572-3.346,3.874
		c1.641,0.697,3.535,2.311,4.877,1.937c6.559-1.828,12.531-0.577,18.295,2.51c1.361,0.728,2.49,1.892,4.658,3.583
		c-7.402,2.21-13.615,4.322-19.959,5.902c-9.838,2.452-10.979,3.552-11.219,13.817c-0.094,3.997,0.207,8.001,0.41,11.993
		c0.029,0.592,0.512,1.161,0.664,1.481c4.174-0.611,8.131-1.846,12.002-1.621c8.557,0.496,10.516,3.439,10.318,11.889
		c-0.271,11.657-0.049,23.325-0.078,34.988c-0.008,3.896-0.064,7.816-3.559,11.385c-3.504-5.332-6.641-10.105-9.857-15
		c-7.646,1.613-15.601,3.098-23.445,5.032c-3.69,0.91-6.402,0.013-7.993-3.123c-1.698-3.351-3.726-6.963-3.926-10.554
		c-0.376-6.774,0.108-13.655,0.883-20.418c0.763-6.658,4.574-8.594,10.85-6.469c1.07,0.363,2.74,0.352,3.533-0.262
		c0.733-0.568,0.944-2.188,0.895-3.322c-0.135-3.076-0.531-6.14-0.926-10.281c-3.525,3.17-6.477,5.941-9.553,8.568
		c-6.817,5.823-13.567,11.736-20.601,17.291c-4.13,3.262-5.672,2.536-7.487-2.412c-0.456-1.242-0.922-2.516-1.618-3.629
		c-2.244-3.584-1.351-5.295,2.336-7.82c7.317-5.01,13.822-11.207,20.663-16.922C275.279,416.784,274.998,416.28,274.718,415.775z" class="dxdICJyl_8"></path>
	<path fill-rule="evenodd" clip-rule="evenodd" fill="none" stroke="#000000" stroke-width="4" stroke-miterlimit="10" d="
		M311.365,449.159c-3.307,1.793-6.012,3.225-8.68,4.72c-3.461,1.938-7.105,3.651-10.228,6.041c-1.19,0.911-1.154,3.426-1.677,5.21
		c1.455,0.292,2.943,0.941,4.36,0.813c5.087-0.462,10.179-1.036,15.204-1.937c1.043-0.187,2.557-1.942,2.572-2.995
		c0.121-7.466-0.064-14.938-0.213-22.406c-0.053-2.666-0.973-4.189-4.041-2.859c-4.74,2.055-9.688,3.694-14.239,6.096
		c-1.839,0.969-2.864,3.48-4.93,6.16C297.394,448.696,304.049,442.733,311.365,449.159z" class="dxdICJyl_9"></path>
	<path fill-rule="evenodd" clip-rule="evenodd" fill="none" stroke="#000000" stroke-width="4" stroke-miterlimit="10" d="
		M310.313,421.983c2.811-1.996,4.898-3.479,7.766-5.513c-5.045-1.451-9.299-2.674-14.193-4.081
		c9.229-6.361,33.613-1.558,38.756,7.654C331.922,420.686,321.631,421.304,310.313,421.983z" class="dxdICJyl_10"></path>
</g>
<g>
	<path fill="none" stroke="#DAB509" stroke-width="4.0907" stroke-miterlimit="10" d="M203.018,620.049A105.744,105.744 0,1,1 414.506,620.049A105.744,105.744 0,1,1 203.018,620.049" class="dxdICJyl_11"></path>
	<linearGradient id="SVGID_1_" gradientUnits="userSpaceOnUse" x1="200.9731" y1="620.0488" x2="416.5508" y2="620.0488">
		<stop offset="0.0056" style="stop-color:#FBCF00"></stop>
		<stop offset="0.2528" style="stop-color:#FFFCD1"></stop>
		<stop offset="0.2986" style="stop-color:#FDF3C0"></stop>
		<stop offset="0.3896" style="stop-color:#EFDA90"></stop>
		<stop offset="0.5159" style="stop-color:#D9B448"></stop>
		<stop offset="0.5955" style="stop-color:#CB9B0C"></stop>
		<stop offset="0.8143" style="stop-color:#EBD272"></stop>
		<stop offset="0.8708" style="stop-color:#F3E18B"></stop>
		<stop offset="1" style="stop-color:#FFFCD1"></stop>
	</linearGradient>
	
		<path fill="none" stroke="url(#SVGID_1_)" stroke-width="4.0907" stroke-miterlimit="10" d="M203.018,620.049A105.744,105.744 0,1,1 414.506,620.049A105.744,105.744 0,1,1 203.018,620.049" class="dxdICJyl_12"></path>
</g>
<g>
	<g>
		<path fill-rule="evenodd" clip-rule="evenodd" fill="none" stroke="#000000" stroke-width="2.6883" stroke-miterlimit="10" d="
			M291.856,629.067c-1.781,1.68-3.571,3.352-5.342,5.044c-0.6,0.572-1.038,1.473-1.739,1.754c-4.044,1.623-8.096,3.261-12.249,4.56
			c-1.699,0.531-3.663,0.314-5.503,0.275c-1.678-0.034-3.574-2.076-3.478-3.783c0.221-3.863,0.386-7.746,0.912-11.574
			c0.659-4.797,1.662-9.547,2.505-14.319c0.503-2.844,2.11-4.917,4.448-6.507c0.412-0.281,0.781-0.635,1.14-0.986
			c3.18-3.109,7.14-3.434,11.221-2.967c2.557,0.293,3.751,3.683,2.04,5.616c-0.321,0.363-1.406,0.518-1.815,0.258
			c-2.096-1.328-4.229-0.704-6.457-0.626c-4.011,0.141-4.912,2.569-5.427,5.829c-0.378,2.396-1.196,4.722-1.783,7.088
			c-0.155,0.626-0.178,1.286-0.041,2.086c3.432-2.795,7.313-3.403,11.382-3.12c0.702,0.049,1.825,0.67,1.938,1.199
			c0.236,1.116,0.027,2.37-0.245,3.509c-0.044,0.188-1.341,0.075-2.059,0.102c-3.569,0.128-7.187-0.171-10.557,1.481
			c-2.56,1.256-2.289,3.83-2.771,5.973c-0.401,1.787-0.304,3.687-0.444,5.804c1.758,0,3.52,0.284,5.149-0.058
			c3.906-0.819,7.757-1.911,11.611-2.958c0.4-0.108,0.695-0.64,1.019-0.996c2.852-3.138,5.584-6.4,8.624-9.345
			c0.826-0.799,2.58-0.641,3.908-0.922c0.244,1.187,0.883,2.455,0.655,3.544c-0.567,2.715-1.528,5.349-2.06,8.258
			c1.29-1.41,2.547-2.854,3.883-4.219c0.799-0.814,1.656-1.609,2.604-2.234c2.452-1.619,4.318-0.989,5.436,1.774
			c0.374,0.929,0.565,1.934,0.962,2.853c0.538,1.252,1.528,1.665,2.541,0.644c4.01-4.041,7.295-8.607,9.873-14.082
			c-1.988,0-3.748,0.077-5.499-0.02c-2.341-0.128-3.147-1.235-2.313-3.368c0.248-0.636,1.248-1.316,1.953-1.374
			c2.141-0.176,4.314,0.053,6.457-0.112c0.743-0.058,1.612-0.659,2.106-1.27c0.757-0.936,1.146-2.164,1.88-3.124
			c0.314-0.41,1.18-0.724,1.652-0.586c0.408,0.118,0.852,0.927,0.869,1.445c0.078,2.226,0.05,4.459-0.044,6.685
			c-0.023,0.573-0.462,1.634-0.647,1.619c-2.033-0.149-2.117,1.524-2.407,2.686c-1.077,4.301-1.992,8.644-2.927,12.979
			c-0.109,0.505,0.035,1.063,0.093,2.235c2.798-2.917,6.304-4.129,6.933-8.483c0.511-3.531,2.601-6.745,5.637-8.871
			c0.964-0.675,3.005-0.881,3.884-0.297c0.823,0.547,1.179,2.486,1.006,3.707c-0.456,3.217-2.943,5.313-4.845,7.732
			c-0.623,0.793-1.224,2.088-0.988,2.911c0.173,0.602,1.715,1.079,2.673,1.131c1.92,0.104,3.542-0.494,4.735-2.324
			c1.001-1.538,2.64-2.648,3.735-4.14c0.754-1.027,1.193-2.346,1.536-3.598c0.466-1.696,3.729-3.297,5.299-2.458
			c3.342,1.784,4.993,5.655,3.973,9.379c-0.429,1.561-0.912,3.105-1.372,4.657c0.156,0.121,0.312,0.241,0.468,0.362
			c1.381-1.047,2.762-2.094,4.184-3.172c1.437,1.506,1.33,2.735-0.406,3.832c-2.062,1.301-4.031,2.766-6.178,3.902
			c-0.711,0.377-1.963,0.188-2.729-0.207c-0.347-0.178-0.276-1.524-0.11-2.278c0.563-2.563,1.398-5.073,1.817-7.654
			c0.141-0.872-0.651-1.896-1.016-2.85c-0.872,0.349-1.959,0.479-2.576,1.086c-2.137,2.099-4.137,4.339-6.137,6.572
			c-1.909,2.132-4.269,3.353-7.095,3.642c-2.183,0.223-3.779-0.604-4.563-2.763c-0.214-0.587-0.53-1.138-1.003-2.135
			c-1.956,1.845-3.706,3.499-5.459,5.148c-0.732,0.688-1.375,1.559-2.236,1.996c-0.813,0.412-2.051,0.752-2.742,0.406
			c-0.684-0.341-1.332-1.609-1.277-2.423c0.229-3.431,0.728-6.844,1.148-10.438c-1.965,1.959-3.899,3.875-5.819,5.808
			c-0.557,0.561-1.028,1.209-1.608,1.742c-2.688,2.467-4.479,2.153-6.35-0.988c-0.654-1.101-1.486-2.097-2.545-3.568
			c-1.822,1.584-3.564,2.993-5.179,4.534c-1.402,1.339-2.526,2.999-4.036,4.183c-0.828,0.649-2.198,0.607-3.324,0.876
			c-0.064-1.009-0.372-2.076-0.147-3.016c0.66-2.759,1.532-5.466,2.321-8.192C292.298,629.401,292.077,629.234,291.856,629.067z" class="dxdICJyl_13"></path>
		<path fill-rule="evenodd" clip-rule="evenodd" fill="none" stroke="#000000" stroke-width="2.6883" stroke-miterlimit="10" d="
			M333.625,626.733c0.244,0.149,0.489,0.299,0.734,0.449c0.809-1.209,1.617-2.417,2.426-3.626c-0.295-0.183-0.59-0.366-0.886-0.549
			C335.141,624.249,334.383,625.491,333.625,626.733z" class="dxdICJyl_14"></path>
	</g>
	<g>
		<path fill="none" stroke="#000000" stroke-width="6" d="M291.856,629.067c-1.781,1.68-3.571,3.352-5.342,5.044
			c-0.6,0.572-1.038,1.473-1.739,1.754c-4.044,1.623-8.096,3.261-12.249,4.56c-1.699,0.531-3.663,0.314-5.503,0.275
			c-1.678-0.034-3.574-2.076-3.478-3.783c0.221-3.863,0.386-7.746,0.912-11.574c0.659-4.797,1.662-9.547,2.505-14.319
			c0.503-2.844,2.11-4.917,4.448-6.507c0.412-0.281,0.781-0.635,1.14-0.986c3.18-3.109,7.14-3.434,11.221-2.967
			c2.557,0.293,3.751,3.683,2.04,5.616c-0.321,0.363-1.406,0.518-1.815,0.258c-2.096-1.328-4.229-0.704-6.457-0.626
			c-4.011,0.141-4.912,2.569-5.427,5.829c-0.378,2.396-1.196,4.722-1.783,7.088c-0.155,0.626-0.178,1.286-0.041,2.086
			c3.432-2.795,7.313-3.403,11.382-3.12c0.702,0.049,1.825,0.67,1.938,1.199c0.236,1.116,0.027,2.37-0.245,3.509
			c-0.044,0.188-1.341,0.075-2.059,0.102c-3.569,0.128-7.187-0.171-10.557,1.481c-2.56,1.256-2.289,3.83-2.771,5.973
			c-0.401,1.787-0.304,3.687-0.444,5.804c1.758,0,3.52,0.284,5.149-0.058c3.906-0.819,7.757-1.911,11.611-2.958
			c0.4-0.108,0.695-0.64,1.019-0.996c2.852-3.138,5.584-6.4,8.624-9.345c0.826-0.799,2.58-0.641,3.908-0.922
			c0.244,1.187,0.883,2.455,0.655,3.544c-0.567,2.715-1.528,5.349-2.06,8.258c1.29-1.41,2.547-2.854,3.883-4.219
			c0.799-0.814,1.656-1.609,2.604-2.234c2.452-1.619,4.318-0.989,5.436,1.774c0.374,0.929,0.565,1.934,0.962,2.853
			c0.538,1.252,1.528,1.665,2.541,0.644c4.01-4.041,7.295-8.607,9.873-14.082c-1.988,0-3.748,0.077-5.499-0.02
			c-2.341-0.128-3.147-1.235-2.313-3.368c0.248-0.636,1.248-1.316,1.953-1.374c2.141-0.176,4.314,0.053,6.457-0.112
			c0.743-0.058,1.612-0.659,2.106-1.27c0.757-0.936,1.146-2.164,1.88-3.124c0.314-0.41,1.18-0.724,1.652-0.586
			c0.408,0.118,0.852,0.927,0.869,1.445c0.078,2.226,0.05,4.459-0.044,6.685c-0.023,0.573-0.462,1.634-0.647,1.619
			c-2.033-0.149-2.117,1.524-2.407,2.686c-1.077,4.301-1.992,8.644-2.927,12.979c-0.109,0.505,0.035,1.063,0.093,2.235
			c2.798-2.917,6.304-4.129,6.933-8.483c0.511-3.531,2.601-6.745,5.637-8.871c0.964-0.675,3.005-0.881,3.884-0.297
			c0.823,0.547,1.179,2.486,1.006,3.707c-0.456,3.217-2.943,5.313-4.845,7.732c-0.623,0.793-1.224,2.088-0.988,2.911
			c0.173,0.602,1.715,1.079,2.673,1.131c1.92,0.104,3.542-0.494,4.735-2.324c1.001-1.538,2.64-2.648,3.735-4.14
			c0.754-1.027,1.193-2.346,1.536-3.598c0.466-1.696,3.729-3.297,5.299-2.458c3.342,1.784,4.993,5.655,3.973,9.379
			c-0.429,1.561-0.912,3.105-1.372,4.657c0.156,0.121,0.312,0.241,0.468,0.362c1.381-1.047,2.762-2.094,4.184-3.172
			c1.437,1.506,1.33,2.735-0.406,3.832c-2.062,1.301-4.031,2.766-6.178,3.902c-0.711,0.377-1.963,0.188-2.729-0.207
			c-0.347-0.178-0.276-1.524-0.11-2.278c0.563-2.563,1.398-5.073,1.817-7.654c0.141-0.872-0.651-1.896-1.016-2.85
			c-0.872,0.349-1.959,0.479-2.576,1.086c-2.137,2.099-4.137,4.339-6.137,6.572c-1.909,2.132-4.269,3.353-7.095,3.642
			c-2.183,0.223-3.779-0.604-4.563-2.763c-0.214-0.587-0.53-1.138-1.003-2.135c-1.956,1.845-3.706,3.499-5.459,5.148
			c-0.732,0.688-1.375,1.559-2.236,1.996c-0.813,0.412-2.051,0.752-2.742,0.406c-0.684-0.341-1.332-1.609-1.277-2.423
			c0.229-3.431,0.728-6.844,1.148-10.438c-1.965,1.959-3.899,3.875-5.819,5.808c-0.557,0.561-1.028,1.209-1.608,1.742
			c-2.688,2.467-4.479,2.153-6.35-0.988c-0.654-1.101-1.486-2.097-2.545-3.568c-1.822,1.584-3.564,2.993-5.179,4.534
			c-1.402,1.339-2.526,2.999-4.036,4.183c-0.828,0.649-2.198,0.607-3.324,0.876c-0.064-1.009-0.372-2.076-0.147-3.016
			c0.66-2.759,1.532-5.466,2.321-8.192C292.298,629.401,292.077,629.234,291.856,629.067z" class="dxdICJyl_15"></path>
		<path fill="none" stroke="#000000" stroke-width="6" d="M333.625,626.733c0.244,0.149,0.489,0.299,0.734,0.449
			c0.809-1.209,1.617-2.417,2.426-3.626c-0.295-0.183-0.59-0.366-0.886-0.549C335.141,624.249,334.383,625.491,333.625,626.733z" class="dxdICJyl_16"></path>
	</g>
</g>
<style data-made-with="vivus-instant">.dxdICJyl_0{stroke-dasharray:511 513;stroke-dashoffset:512;animation:dxdICJyl_draw_0 12800ms linear 0ms infinite,dxdICJyl_fade 12800ms linear 0ms infinite;}.dxdICJyl_1{stroke-dasharray:127 129;stroke-dashoffset:128;animation:dxdICJyl_draw_1 12800ms linear 0ms infinite,dxdICJyl_fade 12800ms linear 0ms infinite;}.dxdICJyl_2{stroke-dasharray:98 100;stroke-dashoffset:99;animation:dxdICJyl_draw_2 12800ms linear 0ms infinite,dxdICJyl_fade 12800ms linear 0ms infinite;}.dxdICJyl_3{stroke-dasharray:909 911;stroke-dashoffset:910;animation:dxdICJyl_draw_3 12800ms linear 0ms infinite,dxdICJyl_fade 12800ms linear 0ms infinite;}.dxdICJyl_4{stroke-dasharray:42 44;stroke-dashoffset:43;animation:dxdICJyl_draw_4 12800ms linear 0ms infinite,dxdICJyl_fade 12800ms linear 0ms infinite;}.dxdICJyl_5{stroke-dasharray:37 39;stroke-dashoffset:38;animation:dxdICJyl_draw_5 12800ms linear 0ms infinite,dxdICJyl_fade 12800ms linear 0ms infinite;}.dxdICJyl_6{stroke-dasharray:584 586;stroke-dashoffset:585;animation:dxdICJyl_draw_6 12800ms linear 0ms infinite,dxdICJyl_fade 12800ms linear 0ms infinite;}.dxdICJyl_7{stroke-dasharray:239 241;stroke-dashoffset:240;animation:dxdICJyl_draw_7 12800ms linear 0ms infinite,dxdICJyl_fade 12800ms linear 0ms infinite;}.dxdICJyl_8{stroke-dasharray:513 515;stroke-dashoffset:514;animation:dxdICJyl_draw_8 12800ms linear 0ms infinite,dxdICJyl_fade 12800ms linear 0ms infinite;}.dxdICJyl_9{stroke-dasharray:127 129;stroke-dashoffset:128;animation:dxdICJyl_draw_9 12800ms linear 0ms infinite,dxdICJyl_fade 12800ms linear 0ms infinite;}.dxdICJyl_10{stroke-dasharray:100 102;stroke-dashoffset:101;animation:dxdICJyl_draw_10 12800ms linear 0ms infinite,dxdICJyl_fade 12800ms linear 0ms infinite;}.dxdICJyl_11{stroke-dasharray:665 667;stroke-dashoffset:666;animation:dxdICJyl_draw_11 12800ms linear 0ms infinite,dxdICJyl_fade 12800ms linear 0ms infinite;}.dxdICJyl_12{stroke-dasharray:665 667;stroke-dashoffset:666;animation:dxdICJyl_draw_12 12800ms linear 0ms infinite,dxdICJyl_fade 12800ms linear 0ms infinite;}.dxdICJyl_13{stroke-dasharray:528 530;stroke-dashoffset:529;animation:dxdICJyl_draw_13 12800ms linear 0ms infinite,dxdICJyl_fade 12800ms linear 0ms infinite;}.dxdICJyl_14{stroke-dasharray:11 13;stroke-dashoffset:12;animation:dxdICJyl_draw_14 12800ms linear 0ms infinite,dxdICJyl_fade 12800ms linear 0ms infinite;}.dxdICJyl_15{stroke-dasharray:528 530;stroke-dashoffset:529;animation:dxdICJyl_draw_15 12800ms linear 0ms infinite,dxdICJyl_fade 12800ms linear 0ms infinite;}.dxdICJyl_16{stroke-dasharray:11 13;stroke-dashoffset:12;animation:dxdICJyl_draw_16 12800ms linear 0ms infinite,dxdICJyl_fade 12800ms linear 0ms infinite;}@keyframes dxdICJyl_draw{100%{stroke-dashoffset:0;}}@keyframes dxdICJyl_fade{0%{stroke-opacity:1;}84.375%{stroke-opacity:1;}100%{stroke-opacity:0;}}@keyframes dxdICJyl_draw_0{6.25%{stroke-dashoffset: 512}9.75140056022409%{ stroke-dashoffset: 0;}100%{ stroke-dashoffset: 0;}}@keyframes dxdICJyl_draw_1{9.75140056022409%{stroke-dashoffset: 128}10.626750700280112%{ stroke-dashoffset: 0;}100%{ stroke-dashoffset: 0;}}@keyframes dxdICJyl_draw_2{10.626750700280112%{stroke-dashoffset: 99}11.303779324229692%{ stroke-dashoffset: 0;}100%{ stroke-dashoffset: 0;}}@keyframes dxdICJyl_draw_3{11.303779324229692%{stroke-dashoffset: 910}17.526971726190474%{ stroke-dashoffset: 0;}100%{ stroke-dashoffset: 0;}}@keyframes dxdICJyl_draw_4{17.526971726190474%{stroke-dashoffset: 43}17.821034663865543%{ stroke-dashoffset: 0;}100%{ stroke-dashoffset: 0;}}@keyframes dxdICJyl_draw_5{17.821034663865547%{stroke-dashoffset: 38}18.08090423669468%{ stroke-dashoffset: 0;}100%{ stroke-dashoffset: 0;}}@keyframes dxdICJyl_draw_6{18.08090423669468%{stroke-dashoffset: 585}22.08152792366947%{ stroke-dashoffset: 0;}100%{ stroke-dashoffset: 0;}}@keyframes dxdICJyl_draw_7{22.08152792366947%{stroke-dashoffset: 240}23.72280943627451%{ stroke-dashoffset: 0;}100%{ stroke-dashoffset: 0;}}@keyframes dxdICJyl_draw_8{23.72280943627451%{stroke-dashoffset: 514}27.237887342436974%{ stroke-dashoffset: 0;}100%{ stroke-dashoffset: 0;}}@keyframes dxdICJyl_draw_9{27.237887342436974%{stroke-dashoffset: 128}28.11323748249299%{ stroke-dashoffset: 0;}100%{ stroke-dashoffset: 0;}}@keyframes dxdICJyl_draw_10{28.113237482493%{stroke-dashoffset: 101}28.803943452380953%{ stroke-dashoffset: 0;}100%{ stroke-dashoffset: 0;}}@keyframes dxdICJyl_draw_11{28.80394345238095%{stroke-dashoffset: 666}33.358499649859944%{ stroke-dashoffset: 0;}100%{ stroke-dashoffset: 0;}}@keyframes dxdICJyl_draw_12{33.358499649859944%{stroke-dashoffset: 666}37.91305584733894%{ stroke-dashoffset: 0;}100%{ stroke-dashoffset: 0;}}@keyframes dxdICJyl_draw_13{37.91305584733894%{stroke-dashoffset: 529}41.53071384803922%{ stroke-dashoffset: 0;}100%{ stroke-dashoffset: 0;}}@keyframes dxdICJyl_draw_14{41.53071384803921%{stroke-dashoffset: 12}41.61277792366946%{ stroke-dashoffset: 0;}100%{ stroke-dashoffset: 0;}}@keyframes dxdICJyl_draw_15{41.61277792366947%{stroke-dashoffset: 529}45.23043592436975%{ stroke-dashoffset: 0;}100%{ stroke-dashoffset: 0;}}@keyframes dxdICJyl_draw_16{45.23043592436975%{stroke-dashoffset: 12}45.3125%{ stroke-dashoffset: 0;}100%{ stroke-dashoffset: 0;}}</style></svg>
