<!--?xml version="1.0" encoding="utf-8"?-->
<!-- Generator: Adobe Illustrator 16.0.0, SVG Export Plug-In . SVG Version: 6.00 Build 0)  -->

<svg version="1.1" id="圖層_1" xmlns="http://www.w3.org/2000/svg" xmlns:xlink="http://www.w3.org/1999/xlink" x="0px" y="0px" width="595.281px" height="841.891px" viewBox="0 0 595.281 841.891" enable-background="new 0 0 595.281 841.891" xml:space="preserve" style="">
<g>
	<path fill="none" stroke="#000000" stroke-width="4" stroke-miterlimit="10" d="M292.039,74.311
		c-5.756,5.33-10.843,10.272-16.189,14.917c-4.394,3.814-9,7.405-13.692,10.85c-4.359,3.198-5.835,2.653-7.581-2.226
		c-0.988-2.762-3.205-5.899-2.544-8.198c0.636-2.21,4.383-3.427,6.563-5.313c5.763-4.984,11.418-10.096,17.116-15.155
		c-0.164-0.414-0.327-0.827-0.49-1.24c-2.636,0.293-5.323,1.047-7.895,0.759c-2.928-0.328-7.226-0.759-8.273-2.631
		c-1.59-2.838-1.047-6.962-0.988-10.532c0.01-0.526,2.632-1.764,3.548-1.404c8.103,3.179,15.281-0.732,22.713-2.643
		c2.09-0.537,4.291-1.009,6.117-2.068c1.351-0.783,3.287-2.883,2.997-3.666c-0.563-1.517-2.403-2.688-3.935-3.655
		c-0.722-0.457-2.093,0.196-2.922-0.188c-2.035-0.942-4.986-1.802-5.591-3.43c-0.66-1.778,0.357-4.793,1.651-6.51
		c1.292-1.714,3.789-2.567,5.835-3.65c1.904-1.008,3.937-1.773,5.868-2.73c10.263-5.083,10.259-5.094,18.292,2.688
		c3.23,3.13,2.879,5.609-1.129,7.719c-0.729,0.385-1.699,0.447-2.275,0.971c-1.268,1.148-2.355,2.496-3.52,3.763
		c1.773,0.723,3.795,2.39,5.273,1.999c5.473-1.447,10.584-0.797,15.576,1.42c2.16,0.96,4.102,2.412,6.145,3.64
		c-0.074,0.462-0.148,0.926-0.223,1.389c-6.238,1.874-12.416,3.988-18.727,5.567c-10.012,2.504-11.055,3.493-11.357,13.683
		c-0.135,4.582-0.021,9.171-0.021,13.751c5.164-0.762,9.074-1.795,12.971-1.751c2.67,0.029,5.605,1.122,7.889,2.578
		c1.479,0.943,2.799,3.395,2.811,5.18c0.09,12.819-0.166,25.642-0.332,38.462c-0.053,4.06,0.211,8.233-3.586,11.906
		c-3.4-5.139-6.543-9.889-9.844-14.876c-7.689,1.628-15.772,3.212-23.782,5.098c-3.228,0.76-5.855,0.147-7.225-2.708
		c-1.831-3.815-4.002-7.839-4.341-11.913c-0.519-6.246,0.123-12.641,0.782-18.919c0.759-7.224,4.127-8.945,11.293-7.034
		c1.187,0.316,4.229-1.609,4.271-2.593C293.433,82.237,292.627,78.823,292.039,74.311z" class="unWeHmad_0"></path>
	<path fill="none" stroke="#000000" stroke-width="4" stroke-miterlimit="10" d="M311.724,101.226
		c-3.313,1.795-6.02,3.223-8.688,4.719c-3.461,1.938-7.106,3.652-10.228,6.043c-1.188,0.911-1.147,3.427-1.668,5.212
		c1.457,0.29,2.946,0.934,4.365,0.805c5.089-0.462,10.181-1.034,15.204-1.936c1.041-0.188,2.549-1.948,2.564-3.004
		c0.121-7.465-0.064-14.938-0.213-22.405c-0.053-2.678-0.992-4.175-4.049-2.85c-4.74,2.056-9.688,3.695-14.24,6.098
		c-1.836,0.969-2.856,3.48-4.919,6.161C297.757,100.754,304.414,94.793,311.724,101.226z" class="unWeHmad_1"></path>
	<path fill="none" stroke="#000000" stroke-width="4" stroke-miterlimit="10" d="M318.531,68.516
		c-5.189-1.459-9.389-2.642-14.131-3.976c8.479-6.494,33.004-1.81,38.275,6.826c-4.947,3.398-10.309,0.472-15.346,1.076
		c-5.209,0.625-10.4,1.395-16.127,1.234C313.341,72.17,315.48,70.664,318.531,68.516z" class="unWeHmad_2"></path>
</g>
<g>
	<path fill="none" stroke="#000000" stroke-width="4" stroke-miterlimit="10" d="M297.385,198.171
		c6.582,3.357,15.773-0.366,18.861-7.347c2.453-5.543,5.439-6.691,12.953-4.28c-1.453,1.635-2.529,3.089-3.846,4.276
		c-4.545,4.104-9.24,8.043-13.748,12.188c-3.162,2.91-2.223,5.508,1.008,7.74c7.541,5.215,15.188,10.063,24.355,12.186
		c5.488,1.27,10.756,3.511,16.119,5.315c-0.137,0.893-0.273,1.783-0.412,2.675c-7.639,0.3-15.689,2.23-22.803,0.438
		c-7.102-1.791-13.264-7.311-20.213-11.417c0.115,1.804,0.301,3.854,0.369,5.909c0.246,7.306,0.715,14.617,0.586,21.918
		c-0.092,5.131-2.568,7.024-7.541,5.688c-5.343-1.438-10.538-3.526-15.636-5.713c-1.576-0.676-2.619-2.594-3.905-3.942
		c0.172-0.469,0.343-0.937,0.515-1.403c3.084,0,6.169,0.084,9.248-0.021c5.116-0.172,8.944-2.668,9.448-7.795
		c0.602-6.143,0.141-12.391,0.141-18.593c-0.428-0.124-0.855-0.249-1.285-0.374c-3.021,4.382-5.796,8.963-9.128,13.094
		c-3.805,4.719-8.063,9.076-12.246,13.475c-0.487,0.513-2.344,0.665-2.559,0.333c-1.041-1.608-2.668-3.613-2.378-5.157
		c0.853-4.546,2.376-8.812,6.991-11.465c3.033-1.743,5.398-4.649,8.063-7.035c-0.568-0.64-1.136-1.279-1.703-1.918
		c-3.111,2.46-6.245,4.893-9.32,7.396c-1.029,0.839-1.809,1.999-2.882,2.76c-1.646,1.164-3.446,2.107-5.181,3.146
		c-0.828-1.821-1.656-3.643-2.679-5.892c-3.051,5.316-5.966,10.857-9.363,16.084c-1.291,1.983-3.694,3.246-5.591,4.837
		c-1.031-2.567-2.782-5.095-2.93-7.712c-0.232-4.117-0.314-8.172,3.364-11.819c3.505-3.476,1.949-8.729-1.669-12.251
		c-1.212-1.18-2.106-3.637-1.788-5.241c0.693-3.499,2.103-6.893,3.518-10.202c1.138-2.658,2.715-5.132,4.821-9.025
		c-3.643,0.351-5.923,0.187-7.937,0.842c-4.729,1.537-9.681-2.293-8.975-7.43c0.778-5.671,2.03-10.777,6.919-15.109
		c5.39-4.774,9.476-11.075,13.863-16.911c2.717-3.612,4.07-3.81,7.309-0.455c5.108,5.291,4.834,10.876-0.727,20.469
		c-1.386,2.392-3.655,4.295-5.629,6.313c-1.833,1.876-3.813,3.607-5.998,5.655c1.474,1.367,2.679,2.432,3.825,3.558
		c4.632,4.546,5.359,9.871,2.136,15.418c-4.486,7.724-4.486,7.724-0.846,18.086c4.129-5.739,7.779-10.815,11.43-15.893
		c0.502,0.111,1.002,0.224,1.503,0.335c-0.931,4.586-1.86,9.172-2.79,13.758c0.32,0.2,0.642,0.399,0.963,0.601
		c1.201-2.033,3.764-4.399,3.363-6.041c-1.551-6.351,2.077-9.657,6.164-13.022c1.246-1.026,2.422-2.14,3.251-4.183
		c-4.354,1.141-8.673,2.463-13.081,3.324c-1.566,0.307-3.864,0.014-4.869-0.979c-0.768-0.757-0.551-3.38,0.198-4.555
		c0.689-1.08,2.706-1.935,4.081-1.857c9.75,0.54,17.561-3.657,24.687-9.968c-1.056,0.159-2.123,0.263-3.165,0.484
		c-7.938,1.692-11.187-1.267-12.068-9.655c-0.504-4.783-0.898-10.219,4.447-13.806c2.188-1.469,3.234-4.569,4.984-6.783
		c1.322-1.673,2.708-3.473,4.463-4.591c4.807-3.061,8.479-1.45,9.27,4.144c0.555,3.932,1.506,6.563,6.205,4.815
		c0.293-0.108,0.689-0.105,0.988-0.007c3.223,1.066,7.92,1.301,9.201,3.51c1.129,1.945-1.348,6.202-2.652,9.258
		c-0.83,1.939-2.426,3.557-3.693,5.308c-1.246,1.723-2.512,3.432-4.041,5.514c8.35,1.343,15.182-5.72,24.734-2.874
		c-2.328,1.656-3.498,2.955-4.938,3.433c-6.131,2.027-12.277,4.063-18.535,5.626C305.137,187.31,300.862,190.518,297.385,198.171z" class="unWeHmad_3"></path>
	<path fill="none" stroke="#000000" stroke-width="4" stroke-miterlimit="10" d="M300.383,211.631
		c0.387-3.203-2.23-6.564-6.43-7.132c-4.539-0.612-8.305,4.238-8.762,10.588C289.836,214.03,294.721,212.919,300.383,211.631z" class="unWeHmad_4"></path>
	<path fill="none" stroke="#000000" stroke-width="4" stroke-miterlimit="10" d="M296.256,172.959
		c7.865,1.875,12.654-2.303,12.506-9.776C300.829,161.552,300.854,169.476,296.256,172.959z" class="unWeHmad_5"></path>
</g>
<g>
	<path fill="none" stroke="#000000" stroke-width="4" stroke-miterlimit="10" d="M318.412,280.078
		c-10.731,1.657-18.834,7.535-25.918,14.803c-3.45,3.541-5.912,8.024-9.151,11.798c-1.073,1.252-3.637,2.683-4.732,2.21
		c-4.772-2.058-6.088,1.239-6.379,4.282c-0.975,10.161-6.287,18.46-10.883,27.067c-2.106,3.946-4.537,7.763-7.191,11.363
		c-2.688,3.647-6.483,3.313-7.301-0.997c-1.146-6.043-1.283-12.397-0.934-18.566c0.27-4.735,2.569-9.355,2.836-14.092
		c0.243-4.322-0.692-8.812-1.728-13.078c-1.253-5.166-3.043-10.171,0.628-15.284c7.288,13.174,11.266,26.56,5.053,41.431
		c0.485,0.093,0.972,0.186,1.455,0.279c1.39-1.525,2.894-2.963,4.143-4.595c2.524-3.299,4.801-6.792,7.38-10.045
		c4.597-5.799,7.761-11.543,4.511-19.479c-1.074-2.624,0.761-6.508,1.481-9.769c0.341-1.545,1.188-2.979,2.084-5.134
		c-2.479,0-4.242-0.045-6.003,0.009c-3.805,0.117-7.31,0.166-5.775-5.531c0.281-1.045-1.194-2.521-1.749-3.846
		c-0.453-1.082-1.368-2.735-0.963-3.239c0.656-0.817,2.22-1.221,3.411-1.245c6.688-0.131,10.925,3.131,12.229,10.398
		c1.244-1.392,1.782-2.274,2.562-2.804c1.525-1.04,3.511-2.927,4.714-2.554c1.613,0.5,3.503,2.665,3.801,4.372
		c0.903,5.168,3.166,5.521,7.538,3.65c6.702-2.868,13.652-5.157,20.496-7.696c5.523-2.05,11.155-2.625,16.371,0.442
		c1.879,1.104,3.545,3.531,4.009,5.642c0.202,0.922-2.655,3.081-4.472,3.788c-8.977,3.495-18.27,6.557-23.857,15.129
		c-2.453,3.766-3.734,8.271-5.871,12.27c-6.814,12.752-13.715,25.46-20.768,38.081c-0.919,1.644-2.924,2.681-4.427,3.999
		c-0.974-1.829-2.608-3.595-2.794-5.5c-0.534-5.524-0.312-10.438,3.494-15.757c5.408-7.563,8.814-16.621,12.604-25.247
		c1.469-3.343,2.461-6.091,6.873-5.545c1.093,0.135,2.563-0.734,3.479-1.563c6.041-5.468,12.002-11.028,17.926-16.626
		C317.384,282.154,317.815,281.028,318.412,280.078z" class="unWeHmad_6"></path>
	<path fill="none" stroke="#000000" stroke-width="4" stroke-miterlimit="10" d="M348.98,336.97c0,4.609,0.49,9.298-0.229,13.793
		c-0.313,1.957-2.891,4.674-4.822,5.044c-6.656,1.275-13.469,2.071-20.246,2.313c-13.194,0.471-23.188-10.324-21.893-23.63
		c0.672-6.901,2.201-13.719,3.282-20.584c0.384-2.433,0.851-4.898,0.8-7.341c-0.055-2.723,0.321-4.75,3.611-4.521
		c2.992,0.209,6.462,0.191,6.464,4.438c0.001,2.256-0.963,4.501-1.378,6.772c-1.576,8.612-3.582,17.185-4.499,25.869
		c-0.661,6.262,1.964,8.472,8.276,8.121c16.523-0.916,21.363-6.81,21.619-21.099c0.041-2.31,0.129-4.722,0.83-6.88
		c0.414-1.271,2.082-2.132,3.185-3.178c0.927,1.048,2.448,1.979,2.681,3.165c1.139,5.847,1.938,11.76,2.854,17.648
		C349.337,336.926,349.158,336.948,348.98,336.97z" class="unWeHmad_7"></path>
</g>
<g>
	<path fill="none" stroke="#000000" stroke-width="4" stroke-miterlimit="10" d="M274.718,415.775
		c-3.298,0.374-6.644,1.256-9.879,0.953c-2.337-0.219-5.919-1.538-6.487-3.206c-1.104-3.239-0.586-7.075-0.407-10.646
		c0.02-0.375,2.53-1.244,3.453-0.856c7.549,3.18,14.313-0.458,21.279-2.209c2.572-0.646,5.214-1.333,7.533-2.556
		c1.335-0.704,3.023-2.656,2.856-3.796c-0.192-1.311-2.122-2.586-3.563-3.41c-0.892-0.512-2.403,0.156-3.417-0.251
		c-1.956-0.791-4.839-1.595-5.351-3.078c-0.654-1.902,0.209-4.719,1.265-6.687c0.758-1.411,2.837-2.202,4.445-3.04
		c2.503-1.304,5.138-2.353,7.663-3.615c9.927-4.966,9.919-4.981,17.901,2.518c3.678,3.454,3.223,6.07-1.441,8.227
		c-0.602,0.279-1.402,0.317-1.826,0.748c-1.195,1.214-2.24,2.572-3.346,3.874c1.641,0.697,3.535,2.312,4.877,1.938
		c6.559-1.828,12.531-0.577,18.295,2.51c1.361,0.729,2.49,1.893,4.658,3.583c-7.402,2.21-13.615,4.322-19.959,5.902
		c-9.838,2.452-10.979,3.552-11.219,13.816c-0.094,3.997,0.207,8.001,0.41,11.993c0.028,0.592,0.512,1.161,0.664,1.481
		c4.174-0.611,8.131-1.847,12.002-1.621c8.557,0.496,10.516,3.438,10.317,11.889c-0.271,11.657-0.049,23.325-0.078,34.988
		c-0.008,3.896-0.063,7.815-3.559,11.385c-3.505-5.332-6.642-10.104-9.856-15c-7.646,1.613-15.602,3.098-23.446,5.032
		c-3.69,0.91-6.402,0.013-7.993-3.123c-1.698-3.351-3.726-6.963-3.926-10.554c-0.376-6.774,0.108-13.655,0.883-20.418
		c0.763-6.658,4.574-8.595,10.85-6.47c1.07,0.363,2.74,0.353,3.533-0.262c0.733-0.568,0.944-2.188,0.895-3.322
		c-0.135-3.075-0.531-6.14-0.926-10.28c-3.525,3.17-6.477,5.94-9.553,8.567c-6.817,5.823-13.567,11.736-20.601,17.291
		c-4.13,3.263-5.672,2.536-7.487-2.412c-0.456-1.241-0.922-2.516-1.618-3.629c-2.244-3.584-1.351-5.295,2.336-7.819
		c7.317-5.011,13.822-11.207,20.663-16.923C275.279,416.784,274.998,416.28,274.718,415.775z" class="unWeHmad_8"></path>
	<path fill="none" stroke="#000000" stroke-width="4" stroke-miterlimit="10" d="M311.365,449.159
		c-3.307,1.793-6.012,3.226-8.68,4.721c-3.461,1.938-7.105,3.65-10.228,6.041c-1.19,0.91-1.154,3.426-1.677,5.21
		c1.455,0.292,2.943,0.94,4.36,0.813c5.087-0.462,10.179-1.036,15.203-1.937c1.044-0.188,2.558-1.942,2.572-2.995
		c0.121-7.466-0.063-14.938-0.213-22.406c-0.053-2.666-0.973-4.189-4.041-2.859c-4.74,2.056-9.688,3.694-14.239,6.097
		c-1.839,0.969-2.864,3.479-4.93,6.16C297.394,448.696,304.048,442.733,311.365,449.159z" class="unWeHmad_9"></path>
	<path fill="none" stroke="#000000" stroke-width="4" stroke-miterlimit="10" d="M310.313,421.983
		c2.812-1.996,4.897-3.479,7.767-5.513c-5.045-1.451-9.3-2.674-14.193-4.081c9.229-6.361,33.613-1.559,38.756,7.654
		C331.921,420.686,321.63,421.304,310.313,421.983z" class="unWeHmad_10"></path>
</g>
<g>
	<path fill="none" stroke="#DAB509" stroke-width="10.7051" stroke-miterlimit="10" d="M227.24099999999999,591.961A74.343,74.343 0,1,1 375.927,591.961A74.343,74.343 0,1,1 227.24099999999999,591.961" class="unWeHmad_11"></path>
	
		<linearGradient id="SVGID_1_" gradientUnits="userSpaceOnUse" x1="162.8481" y1="233.3298" x2="322.2388" y2="233.3298" gradientTransform="matrix(1 0 0 -1 59.04 825.2905)">
		<stop offset="0.0056" style="stop-color:#FBCF00"></stop>
		<stop offset="0.2528" style="stop-color:#FFFCD1"></stop>
		<stop offset="0.2986" style="stop-color:#FDF3C0"></stop>
		<stop offset="0.3896" style="stop-color:#EFDA90"></stop>
		<stop offset="0.5159" style="stop-color:#D9B448"></stop>
		<stop offset="0.5955" style="stop-color:#CB9B0C"></stop>
		<stop offset="0.8143" style="stop-color:#EBD272"></stop>
		<stop offset="0.8708" style="stop-color:#F3E18B"></stop>
		<stop offset="1" style="stop-color:#FFFCD1"></stop>
	</linearGradient>
	
		<path fill="none" stroke="url(#SVGID_1_)" stroke-width="10.7051" stroke-miterlimit="10" d="M227.24099999999999,591.961A74.343,74.343 0,1,1 375.927,591.961A74.343,74.343 0,1,1 227.24099999999999,591.961" class="unWeHmad_12"></path>
</g>
<g>
	<path fill-rule="evenodd" clip-rule="evenodd" fill="none" stroke="#000000" stroke-width="3" stroke-miterlimit="10" d="
		M255.496,598.992c4.623,0.425,8.685,0.801,12.727,1.173c1.033,3.407,0.034,4.93-3.499,4.908
		c-14.85-0.094-13.962,1.692-14.046-13.452c-0.023-4.254,0.214-8.531,0.738-12.749c0.129-1.037,1.831-2.642,2.847-2.67
		c3.519-0.097,7.051,0.421,10.582,0.636c2.843,0.176,3.18,1.702,2.262,4.381c-2.933,0-5.957-0.339-8.836,0.16
		c-1.223,0.214-2.672,2.028-3.077,3.395c-0.667,2.25,0.763,3.374,3.119,3.251c1.277-0.068,2.565,0.066,3.842-0.009
		c2.784-0.163,3.606,1.049,2.559,3.921c-2.685,0.128-5.485,0.264-8.834,0.424C255.75,594.574,255.627,596.704,255.496,598.992z" class="unWeHmad_13"></path>
	<path fill-rule="evenodd" clip-rule="evenodd" fill="none" stroke="#000000" stroke-width="3" stroke-miterlimit="10" d="
		M290.644,604.969c-1.565,0-3.078,0-4.887,0c0-4.543,0.233-8.95-0.12-13.309c-0.133-1.641-1.626-3.171-2.499-4.752
		c-1.423,1.302-3.782,2.415-4.094,3.943c-0.927,4.543-1.047,9.249-1.498,14.05c-1.642,0.19-3.413,0.395-5.628,0.649
		c0.404-7.792,0.801-15.421,1.237-23.825c2.256,0.44,4.323,0.844,6.391,1.248c5.935-2.256,10.594,0.499,11.047,7.932
		C290.87,595.433,290.644,599.991,290.644,604.969z" class="unWeHmad_14"></path>
	<path fill-rule="evenodd" clip-rule="evenodd" fill="none" stroke="#000000" stroke-width="3" stroke-miterlimit="10" d="
		M334.101,594.167c-3.467,0.24-6.721,0.343-9.936,0.756c-1.186,0.154-2.275,1.045-3.41,1.601c0.654,1.327,0.963,3.151,2.027,3.885
		c3.018,2.087,6.1,1.611,9.045-0.646c0.895-0.685,2.279-0.732,3.563-0.615c-2.906,5.54-7.865,7.192-13.385,5.138
		c-4.74-1.766-7.252-6.67-6.23-12.164c1.107-5.963,5.383-10.079,10.445-10.062C331.169,582.078,334.517,586.925,334.101,594.167z
		 M329.783,591.054c0.23-0.459,0.459-0.918,0.688-1.375c-1.416-1.158-3.109-3.473-4.189-3.218c-1.902,0.453-3.428,2.477-5.113,3.844
		c0.287,0.405,0.574,0.813,0.861,1.218C324.615,591.367,327.199,591.212,329.783,591.054z" class="unWeHmad_15"></path>
	<path fill-rule="evenodd" clip-rule="evenodd" fill="none" stroke="#000000" stroke-width="3" stroke-miterlimit="10" d="
		M299.345,588.146c-1.596-0.132-2.704-0.223-4.076-0.336c-0.076-1.519-0.145-2.884-0.229-4.534c3.221-0.626,5.871-1.735,6.035-5.631
		c0.028-0.705,1.836-1.336,3.477-2.444c0,2.823,0,4.6,0,6.582c1.494,0.177,2.85,0.337,4.389,0.518c0,1.56,0,2.923,0,4.235
		c-4.826,1.154-6.395,4.432-5.18,10.314c0.941,4.551,4.096,2.721,7.945,2.161c-0.594,1.749-0.66,3.653-1.494,4.091
		c-2.658,1.392-5.785,3.617-8.463,0.44c-1.345-1.596-2.028-4.025-2.31-6.172C299.056,594.451,299.345,591.44,299.345,588.146z" class="unWeHmad_16"></path>
	<path fill-rule="evenodd" clip-rule="evenodd" fill="none" stroke="#000000" stroke-width="3" stroke-miterlimit="10" d="
		M339.81,604.892c0-7.643,0-15.088,0-23.361c2.07,0.73,3.816,1.347,6.361,2.244c0.961-0.392,3.094-1.262,5.918-2.416
		c0.139,2.346,0.227,3.818,0.326,5.497c-11.438,2.082-6.646,11.381-8.162,18.036C342.81,604.892,341.464,604.892,339.81,604.892z" class="unWeHmad_17"></path>
</g>
<style data-made-with="vivus-instant">.unWeHmad_0{stroke-dasharray:511 513;stroke-dashoffset:512;animation:unWeHmad_draw_0 12300ms linear 0ms infinite,unWeHmad_fade 12300ms linear 0ms infinite;}.unWeHmad_1{stroke-dasharray:127 129;stroke-dashoffset:128;animation:unWeHmad_draw_1 12300ms linear 0ms infinite,unWeHmad_fade 12300ms linear 0ms infinite;}.unWeHmad_2{stroke-dasharray:98 100;stroke-dashoffset:99;animation:unWeHmad_draw_2 12300ms linear 0ms infinite,unWeHmad_fade 12300ms linear 0ms infinite;}.unWeHmad_3{stroke-dasharray:909 911;stroke-dashoffset:910;animation:unWeHmad_draw_3 12300ms linear 0ms infinite,unWeHmad_fade 12300ms linear 0ms infinite;}.unWeHmad_4{stroke-dasharray:42 44;stroke-dashoffset:43;animation:unWeHmad_draw_4 12300ms linear 0ms infinite,unWeHmad_fade 12300ms linear 0ms infinite;}.unWeHmad_5{stroke-dasharray:37 39;stroke-dashoffset:38;animation:unWeHmad_draw_5 12300ms linear 0ms infinite,unWeHmad_fade 12300ms linear 0ms infinite;}.unWeHmad_6{stroke-dasharray:584 586;stroke-dashoffset:585;animation:unWeHmad_draw_6 12300ms linear 0ms infinite,unWeHmad_fade 12300ms linear 0ms infinite;}.unWeHmad_7{stroke-dasharray:239 241;stroke-dashoffset:240;animation:unWeHmad_draw_7 12300ms linear 0ms infinite,unWeHmad_fade 12300ms linear 0ms infinite;}.unWeHmad_8{stroke-dasharray:513 515;stroke-dashoffset:514;animation:unWeHmad_draw_8 12300ms linear 0ms infinite,unWeHmad_fade 12300ms linear 0ms infinite;}.unWeHmad_9{stroke-dasharray:127 129;stroke-dashoffset:128;animation:unWeHmad_draw_9 12300ms linear 0ms infinite,unWeHmad_fade 12300ms linear 0ms infinite;}.unWeHmad_10{stroke-dasharray:100 102;stroke-dashoffset:101;animation:unWeHmad_draw_10 12300ms linear 0ms infinite,unWeHmad_fade 12300ms linear 0ms infinite;}.unWeHmad_11{stroke-dasharray:468 470;stroke-dashoffset:469;animation:unWeHmad_draw_11 12300ms linear 0ms infinite,unWeHmad_fade 12300ms linear 0ms infinite;}.unWeHmad_12{stroke-dasharray:468 470;stroke-dashoffset:469;animation:unWeHmad_draw_12 12300ms linear 0ms infinite,unWeHmad_fade 12300ms linear 0ms infinite;}.unWeHmad_13{stroke-dasharray:125 127;stroke-dashoffset:126;animation:unWeHmad_draw_13 12300ms linear 0ms infinite,unWeHmad_fade 12300ms linear 0ms infinite;}.unWeHmad_14{stroke-dasharray:111 113;stroke-dashoffset:112;animation:unWeHmad_draw_14 12300ms linear 0ms infinite,unWeHmad_fade 12300ms linear 0ms infinite;}.unWeHmad_15{stroke-dasharray:118 120;stroke-dashoffset:119;animation:unWeHmad_draw_15 12300ms linear 0ms infinite,unWeHmad_fade 12300ms linear 0ms infinite;}.unWeHmad_16{stroke-dasharray:90 92;stroke-dashoffset:91;animation:unWeHmad_draw_16 12300ms linear 0ms infinite,unWeHmad_fade 12300ms linear 0ms infinite;}.unWeHmad_17{stroke-dasharray:69 71;stroke-dashoffset:70;animation:unWeHmad_draw_17 12300ms linear 0ms infinite,unWeHmad_fade 12300ms linear 0ms infinite;}@keyframes unWeHmad_draw{100%{stroke-dashoffset:0;}}@keyframes unWeHmad_fade{0%{stroke-opacity:1;}59.34959349593496%{stroke-opacity:1;}100%{stroke-opacity:0;}}@keyframes unWeHmad_draw_0{6.504065040650407%{stroke-dashoffset: 512}9.56866447082645%{ stroke-dashoffset: 0;}100%{ stroke-dashoffset: 0;}}@keyframes unWeHmad_draw_1{9.56866447082645%{stroke-dashoffset: 128}10.334814328370461%{ stroke-dashoffset: 0;}100%{ stroke-dashoffset: 0;}}@keyframes unWeHmad_draw_2{10.334814328370461%{stroke-dashoffset: 99}10.927383358814655%{ stroke-dashoffset: 0;}100%{ stroke-dashoffset: 0;}}@keyframes unWeHmad_draw_3{10.927383358814655%{stroke-dashoffset: 910}16.374230002291608%{ stroke-dashoffset: 0;}100%{ stroke-dashoffset: 0;}}@keyframes unWeHmad_draw_4{16.374230002291608%{stroke-dashoffset: 43}16.6316084700603%{ stroke-dashoffset: 0;}100%{ stroke-dashoffset: 0;}}@keyframes unWeHmad_draw_5{16.6316084700603%{stroke-dashoffset: 38}16.859059209018678%{ stroke-dashoffset: 0;}100%{ stroke-dashoffset: 0;}}@keyframes unWeHmad_draw_6{16.859059209018678%{stroke-dashoffset: 585}20.36060347982529%{ stroke-dashoffset: 0;}100%{ stroke-dashoffset: 0;}}@keyframes unWeHmad_draw_7{20.36060347982529%{stroke-dashoffset: 240}21.79713446272031%{ stroke-dashoffset: 0;}100%{ stroke-dashoffset: 0;}}@keyframes unWeHmad_draw_8{21.79713446272031%{stroke-dashoffset: 514}24.87370498442048%{ stroke-dashoffset: 0;}100%{ stroke-dashoffset: 0;}}@keyframes unWeHmad_draw_9{24.87370498442048%{stroke-dashoffset: 128}25.63985484196449%{ stroke-dashoffset: 0;}100%{ stroke-dashoffset: 0;}}@keyframes unWeHmad_draw_10{25.63985484196449%{stroke-dashoffset: 101}26.24439496393281%{ stroke-dashoffset: 0;}100%{ stroke-dashoffset: 0;}}@keyframes unWeHmad_draw_11{26.244394963932816%{stroke-dashoffset: 469}29.05161592634017%{ stroke-dashoffset: 0;}100%{ stroke-dashoffset: 0;}}@keyframes unWeHmad_draw_12{29.051615926340162%{stroke-dashoffset: 469}31.858836888747515%{ stroke-dashoffset: 0;}100%{ stroke-dashoffset: 0;}}@keyframes unWeHmad_draw_13{31.858836888747515%{stroke-dashoffset: 126}32.613015654767395%{ stroke-dashoffset: 0;}100%{ stroke-dashoffset: 0;}}@keyframes unWeHmad_draw_14{32.6130156547674%{stroke-dashoffset: 112}33.283396780118416%{ stroke-dashoffset: 0;}100%{ stroke-dashoffset: 0;}}@keyframes unWeHmad_draw_15{33.283396780118416%{stroke-dashoffset: 119}33.99567672580386%{ stroke-dashoffset: 0;}100%{ stroke-dashoffset: 0;}}@keyframes unWeHmad_draw_16{33.99567672580386%{stroke-dashoffset: 91}34.54036139015155%{ stroke-dashoffset: 0;}100%{ stroke-dashoffset: 0;}}@keyframes unWeHmad_draw_17{34.54036139015155%{stroke-dashoffset: 70}34.959349593495936%{ stroke-dashoffset: 0;}100%{ stroke-dashoffset: 0;}}</style></svg>
