<?xml version="1.0" encoding="utf-8"?>
<!-- Generator: Adobe Illustrator 16.0.0, SVG Export Plug-In . SVG Version: 6.00 Build 0)  -->
<!DOCTYPE svg PUBLIC "-//W3C//DTD SVG 1.1//EN" "http://www.w3.org/Graphics/SVG/1.1/DTD/svg11.dtd">
<svg version="1.1" id="圖層_1" xmlns="http://www.w3.org/2000/svg" xmlns:xlink="http://www.w3.org/1999/xlink" x="0px" y="0px"
	 width="200px" height="100px" viewBox="0 0 200 100" enable-background="new 0 0 200 100" xml:space="preserve">
<path d="M55.002,40.816c0.419,0,0.733,0.393,0.943,1.178c0.786,2.358,1.178,6.864,1.178,13.515
	c-0.105,16.815-2.069,27.265-5.893,31.352c-0.42,0.472-0.707,0.708-0.865,0.708c-0.21,0-0.313-0.157-0.313-0.471
	c2.879-4.979,4.373-15.454,4.479-31.432c0-6.652-0.027-11.157-0.079-13.516C54.453,41.262,54.635,40.816,55.002,40.816z
	 M66.789,20.936c0.313,0,0.602,0.106,0.864,0.315c0.733,0.578,1.101,1.677,1.101,3.3c-0.107,0.682-0.997,1.494-2.673,2.436
	c-2.042,1.1-4.505,2.437-7.385,4.008c-1.153,0.628-2.175,1.179-3.064,1.65c-0.578,0.419-0.866,0.917-0.866,1.493
	c0,0.628,0.366,1.126,1.101,1.492c0.89,0.158,2.801,0.236,5.736,0.236c2.409,0,3.823-0.261,4.243-0.786
	c0.68-0.314,1.022-0.758,1.022-1.335c0-1.048-0.892-2.016-2.673-2.908c0-0.418,0.209-0.707,0.629-0.864
	c0.314,0,0.68,0.132,1.1,0.393c2.148,0.838,3.222,2.07,3.222,3.692c0,1.309-0.549,2.306-1.65,2.986
	c-1.048,0.838-3.038,1.257-5.971,1.257c0.68,6.182,1.021,14.748,1.021,25.695c0,14.352-0.235,22.551-0.708,24.593
	c-0.209,0.891-0.445,1.337-0.707,1.337c-0.157-0.107-0.341-0.604-0.55-1.494c-0.524-3.248-0.785-11.393-0.785-24.436
	c0.05-11.995,0.234-20.561,0.549-25.695c-3.249-0.052-5.421-0.338-6.522-0.864c-1.467-0.68-2.199-1.833-2.199-3.458
	c0-0.942,0.786-1.99,2.357-3.143c1.519-0.942,3.037-1.807,4.558-2.593c-1.312-0.209-2.594-0.6-3.851-1.178
	c-1.31-0.523-1.964-1.493-1.964-2.907c0-0.524,0.419-1.205,1.258-2.044c0.836-0.732,1.99-1.519,3.457-2.357
	c2.148-1.258,3.222-2.357,3.222-3.3c0-0.419-0.157-0.838-0.472-1.258c0.104-0.366,0.315-0.55,0.628-0.55
	c0.158,0,0.393,0.08,0.708,0.236c0.837,0.733,1.258,1.65,1.258,2.75c0,1.1-0.604,2.173-1.808,3.222
	c-1.257,0.996-2.542,1.833-3.851,2.514c-0.577,0.313-1.048,0.628-1.413,0.943c0,0.523,0.392,0.97,1.178,1.336
	c1.204,0.837,2.436,1.363,3.693,1.571c0.104-0.052,0.183-0.079,0.235-0.079c1.623-0.839,3.011-1.676,4.165-2.515
	c1.1-0.576,1.651-1.256,1.651-2.042c-0.106-0.418-0.21-0.732-0.315-0.943C66.317,21.382,66.475,21.146,66.789,20.936z
	 M66.632,39.402c0.522,0,0.785,0.55,0.785,1.649c0,4.769,0.052,10.557,0.158,17.366c0.05,14.668,1.386,24.28,4.007,28.838
	c0,0.314-0.079,0.471-0.235,0.471c-0.21,0-0.525-0.209-0.943-0.627c-3.615-3.825-5.422-13.411-5.422-28.76
	c0-6.181,0.261-11.891,0.786-17.129C65.976,40.004,66.265,39.402,66.632,39.402z M70.954,27.694h11.315
	c0.732-0.995,1.362-1.833,1.886-2.515h-8.251c-0.156,0-0.313-0.026-0.47-0.077c-0.787,0.471-1.599,0.759-2.437,0.864
	c-1.256,0-1.886-0.288-1.886-0.864c0-0.42,0.393-0.629,1.179-0.629c1.256-0.366,2.724-1.729,4.4-4.085
	c1.308-1.572,2.436-3.248,3.379-5.029c0.629-0.576,1.126-0.865,1.493-0.865c0.209,0.21,0.314,0.604,0.314,1.178
	c-0.053,0.525-0.158,1.048-0.314,1.572h10.138c0.574,0,0.862,0.157,0.862,0.471c0,0.577-0.917,2.017-2.75,4.322
	c-1.625,2.095-3.092,3.981-4.4,5.657h10.449c1.152,0.106,1.729,0.471,1.729,1.1c0,0.735-0.499,1.101-1.493,1.101h-12.1
	c-0.053,0.157-0.106,0.262-0.157,0.314c-1.101,1.049-2.149,1.991-3.144,2.829c1.623,2.306,3.457,5.71,5.501,10.214
	c2.513,4.767,3.771,9.481,3.771,14.144c0,4.243-1.729,9.114-5.186,14.615c-3.51,6.181-6.549,11.079-9.113,14.693
	c-0.21,0.471-0.473,0.708-0.787,0.708c-0.158,0-0.236-0.343-0.236-1.022c1.102-2.673,3.065-6.705,5.894-12.102
	c4.19-7.646,6.286-12.938,6.286-15.871c0-2.882-0.627-6.311-1.886-10.293c-0.157-0.523-0.341-1.074-0.549-1.65l-13.358,12.1
	c-0.525,0.368-0.943,0.552-1.257,0.552c-0.682,0-1.021-0.288-1.021-0.866c0-0.419,0.392-0.968,1.178-1.649L83.29,43.566
	c-0.472-1.257-0.943-2.488-1.415-3.693l-10.529,9.35c-0.472,0.421-0.864,0.629-1.178,0.629c-0.682,0-1.022-0.315-1.022-0.944
	c0-0.364,0.393-0.864,1.179-1.493l10.451-10.449c-0.367-1.101-0.736-2.094-1.101-2.987c-3.195,2.725-6.549,5.266-10.058,7.623
	c-0.314,0.313-0.682,0.47-1.1,0.47c-0.367,0-0.55-0.236-0.55-0.707c2.671-3.299,7.123-7.124,13.356-11.472H70.404
	c-0.997,0-1.494-0.366-1.494-1.101C68.91,28.165,69.591,27.8,70.954,27.694z M78.025,22.979h6.914
	c0.262,0.053,0.473,0.078,0.629,0.078c1.465-1.886,2.251-2.985,2.357-3.3c0-0.157-0.132-0.236-0.393-0.236H80.54
	c-0.524,1.049-1.256,2.07-2.199,3.065C78.234,22.743,78.13,22.875,78.025,22.979z M96.961,33.508c0.681,0,1.022,0.157,1.022,0.471
	c-0.472,0.525-0.839,1.178-1.101,1.964c-0.471,1.258-0.969,2.095-1.493,2.515c-0.891,1.152-2.252,1.728-4.084,1.728
	c-0.473,0-0.761-0.052-0.866-0.157c0.158,0.262,0.315,0.471,0.473,0.628c1.308,1.729,2.59,4.48,3.849,8.25
	c0.681,2.412,1.702,5.396,3.063,8.959c0.943,2.306,2.018,4.296,3.223,5.971c0,0.578-0.08,0.865-0.236,0.865
	c-0.42,0-0.864-0.158-1.335-0.472c-1.52-1.363-3.038-3.85-4.558-7.465c-1.049-2.933-2.018-5.788-2.907-8.565
	c-1.363-3.823-3.117-6.729-5.265-8.721c-1.467-0.261-2.2-0.603-2.2-1.021c0.314-0.313,1.125-0.471,2.436-0.471
	c0.891,0,1.859,0.498,2.907,1.493c0.208-0.365,0.68-0.55,1.416-0.55c0.679-0.158,1.335-0.472,1.963-0.943
	c0.785-0.628,1.388-1.388,1.807-2.279C95.704,34.505,96.333,33.771,96.961,33.508z"/>
<path d="M102.147,30.366c0.472,0,0.916,0.105,1.337,0.314l7.779,3.458c0.574,0.209,0.863,0.655,0.863,1.335v25.772
	c0,4.664-0.839,9.168-2.515,13.515c-2.097,5.5-4.507,9.822-7.229,12.966c-0.315,0.419-0.577,0.629-0.786,0.629
	c-0.314,0-0.471-0.21-0.471-0.629c4.608-6.653,7.28-15.427,8.014-26.324V37.359c0-0.524-0.235-0.944-0.707-1.258l-6.6-3.3
	c-0.524-0.42-0.785-0.812-0.785-1.179C101.049,30.994,101.414,30.576,102.147,30.366z M102.698,16.458
	c4.189,1.782,7.543,3.642,10.058,5.579c0.366,0.42,0.55,0.864,0.55,1.336c0,0.628-0.288,0.994-0.864,1.1
	c-3.981-1.675-7.465-3.771-10.451-6.287c-0.314-0.208-0.472-0.549-0.472-1.021C101.623,16.694,102.016,16.458,102.698,16.458z
	 M128.55,29.265c0.26,0,0.393,0.314,0.393,0.944c-0.785,3.877-1.257,9.558-1.415,17.049c-0.366,9.273-1.021,15.507-1.963,18.701
	c-1.887,9.272-5.188,16.425-9.902,21.453c-0.421,0.575-0.838,0.863-1.256,0.863c-0.368,0-0.55-0.288-0.55-0.863
	c4.817-7.386,7.907-16.057,9.271-26.011c0.942-5.395,1.519-10.814,1.729-16.263c0.472-7.072,1.466-12.129,2.986-15.166
	C128,29.501,128.235,29.265,128.55,29.265z M132.086,21.015c4.293,0,8.511,0.313,12.649,0.943c0.366-0.576,0.838-1.073,1.415-1.493
	c0.262-0.523,0.549-0.786,0.863-0.786c0.366,0,0.55,0.263,0.55,0.786c-0.628,1.256-0.942,2.62-0.942,4.085
	c0,2.567,0.471,5.029,1.414,7.386c0,0.472-0.131,0.708-0.392,0.708c-0.264,0-0.552-0.158-0.866-0.471
	c-1.99-1.886-2.984-4.296-2.984-7.23c0-0.157,0.026-0.314,0.077-0.471c-3.927-0.628-7.909-0.943-11.941-0.943
	c-3.826,0-7.597,0.289-11.315,0.864c0.051,0.42,0.079,0.839,0.079,1.258c0,3.249-1.258,5.893-3.773,7.935
	c-0.366,0.368-0.655,0.551-0.863,0.551c-0.262,0-0.394-0.236-0.394-0.708c1.519-2.619,2.28-5.315,2.28-8.093
	c0-1.99-0.393-3.85-1.179-5.579c0-0.472,0.155-0.707,0.471-0.707c0.419,0,0.732,0.235,0.943,0.707
	c0.785,0.577,1.36,1.284,1.729,2.122C123.991,21.304,128.051,21.015,132.086,21.015z M137.9,29.58c0.418,0,0.627,0.655,0.627,1.964
	c-0.785,4.558-1.178,10.085-1.178,16.58c0.838,11.369,5.918,24.49,15.243,39.366c0,0.472-0.184,0.709-0.55,0.709
	c-0.42,0-0.839-0.29-1.258-0.865c-9.848-12.363-15.374-25.146-16.578-38.345c0-5.552,0.864-11.367,2.593-17.444
	C137.114,30.235,137.479,29.58,137.9,29.58z"/>
<g>
	<path fill-rule="evenodd" clip-rule="evenodd" d="M26.016,82.946c0.526,0.137,0.632-0.37,1.022-0.495
		c0.158,0.518,0.273,1.055,1.16,1.672c0-1.357,0-2.424,0-3.626c-0.55,0.606,0.184,1.561-1.179,1.749
		c-0.264-0.561,0.622-1.436-0.926-1.643c-0.071,0.515-0.109,1.031-0.222,1.541C25.807,82.438,25.426,82.79,26.016,82.946z"/>
	<path fill-rule="evenodd" clip-rule="evenodd" d="M21.671,57.92c0.687-1.486,0.469-2.673-1.096-4.115
		C20.946,55.324,19.931,56.664,21.671,57.92z"/>
	<path fill-rule="evenodd" clip-rule="evenodd" d="M21.305,58.725c-0.011,0.981-1.53,1.713-0.888,2.949
		C21.544,60.726,21.715,59.772,21.305,58.725z"/>
	<path fill-rule="evenodd" clip-rule="evenodd" d="M20.222,64.687c0.216,1.763-0.404,3.469-0.585,5.204
		c-0.64,0.714-0.275,1.486-0.255,2.242c-0.052,0.52-0.184,1.043,0.132,1.55c0.127,0.206-0.119,0.585,0.518,0.538
		c0.476-0.035,0.583-0.295,0.593-0.567c0.022-0.63,0.021-1.258,0.029-1.889c0.138-0.022,0.282-0.037,0.413-0.072
		c0.04-0.012,0.047-0.083,0.07-0.127c-1.568-0.227-0.42-1.185-0.946-1.691c0.818-1.959,1.375-3.946,1.356-5.997
		C20.758,63.874,20.157,64.155,20.222,64.687z"/>
	<path fill-rule="evenodd" clip-rule="evenodd" d="M23.195,70.596c-0.179-0.003-0.516,0.116-0.518,0.187
		c-0.044,0.979-0.661,1.849-1.039,2.762c-0.092,0.223-0.076,0.564,0.427,0.604c0.432,0.036,0.656-0.215,0.743-0.469
		c0.172-0.496,0.16-1.049,1.013-1.282c-0.029-0.464-0.048-0.928-0.09-1.392C23.711,70.779,23.531,70.6,23.195,70.596z"/>
	<path fill-rule="evenodd" clip-rule="evenodd" d="M22.932,80.297c-0.011-0.368,0.023-0.738-0.048-1.102
		c-0.06-0.309,0.351-0.845-0.515-0.84c-0.629,0.002-0.693,0.429-0.822,0.812c-0.333,0.982-0.759,1.951-1.168,2.92
		c-0.431,1.011-0.245,1.386,1.047,1.979c0.355-1.286-0.438-2.792,1.503-3.757c0.599,1.22-1.029,2.272-0.651,3.909
		c2.285-2.232,1.865-4.428,2.082-6.536C23.527,78.479,24.295,79.651,22.932,80.297z"/>
	<path fill-rule="evenodd" clip-rule="evenodd" d="M21.974,62.654c-0.659,0.406-0.366,0.834-0.404,1.222
		c0.29,0.2,0.578,0.401,0.869,0.604C22.38,63.879,22.681,63.218,21.974,62.654z"/>
	<path fill-rule="evenodd" clip-rule="evenodd" d="M23.017,67.745c-0.016-0.254,0.4-0.68-0.381-0.676
		c-0.581,0.003-0.666,0.372-0.59,0.685c0.121,0.501,0.15,1.08,0.542,1.467c0.591,0.58,1.114,0.379,1.229-0.302
		C23.215,68.64,23.046,68.221,23.017,67.745z"/>
	<path fill-rule="evenodd" clip-rule="evenodd" d="M19.538,81.822c0.374-1.28,0.204-2.349-0.735-3.806
		C18.922,79.55,17.643,80.705,19.538,81.822z"/>
	<path fill-rule="evenodd" clip-rule="evenodd" d="M48.087,36.888c-1.728-0.629-3.378-1.363-4.95-2.201
		c-1.467-0.837-3.064-2.016-4.792-3.536c-1.572-1.623-3.065-2.986-4.479-4.085h12.494c1.1,0,1.65-0.445,1.65-1.336
		c0-0.681-0.655-1.073-1.964-1.179H26.008c-0.105-1.623-0.341-2.986-0.707-4.085c5.815-0.419,10.712-1.572,14.693-3.458
		c0.419-0.313,0.629-0.628,0.629-0.943c0-0.365-0.367-0.55-1.1-0.55c-6.077,1.991-15.742,3.039-28.994,3.143
		c-1.415,0.157-2.122,0.367-2.122,0.628c0,0.577,0.786,0.943,2.357,1.101c2.304,0.157,5.788,0.235,10.45,0.235
		c0.838,0,1.729-0.026,2.671-0.079c-0.157,0.943-0.288,2.278-0.392,4.007H4.557c-1.467,0.106-2.199,0.498-2.199,1.179
		c0,0.891,0.55,1.336,1.65,1.336h12.965c-1.101,0.839-2.201,1.991-3.3,3.456c-1.572,1.939-3.667,3.616-6.286,5.029
		c-2.201,1.207-4.322,1.965-6.365,2.28C0.339,38.039,0,38.276,0,38.538c0,0.314,0.34,0.471,1.021,0.471
		c4.452-0.68,7.937-1.78,10.451-3.3c2.408-1.047,4.295-3.064,5.658-6.05c0.576-0.996,1.151-1.858,1.729-2.593h4.479
		c-0.052,0.524-0.078,1.127-0.078,1.807c0,4.296,0.314,6.994,0.943,8.094c0.104,0.367,0.208,0.733,0.314,1.101
		c-3.877,0.052-7.779,0.392-11.708,1.021c-0.157-0.892-0.42-1.335-0.786-1.335c-1.1,0-1.649,1.544-1.649,4.635v10.209
		c-0.105,0.008-0.21,0.018-0.316,0.025c-0.148-0.498-0.296-0.997-0.465-1.56c-0.282,0.341-0.5,0.606-0.54,0.652
		c-0.372-0.871-0.745-1.751-1.162-2.731c-0.414,0.706-0.62,1.058-0.799,1.363c0.166,0.543,0.361,1.182,0.555,1.817
		c-0.075,0.025-0.151,0.051-0.227,0.075c-0.34-0.605-0.68-1.209-1.02-1.814c-0.289-0.817-0.586-1.631-0.923-2.427
		c-0.25-0.592-0.786-1.528-1.162-1.515c-1.338,0.05-1.83-0.877-2.437-1.739c-1.005,0.463-0.945,1.059-0.469,1.797
		c1.142,1.765,2.267,3.537,3.374,5.324c0.204,0.328,0.471,0.781,0.39,1.095c-0.289,1.146-0.007,1.725,1.246,1.836
		c0.223,0.019,0.448,0.149,0.662,0.313c0.253,0.25,0.518,0.489,0.788,0.723c0.802,0.779,1.6,1.57,2.308,2.433
		c0.072,0.086,0.135,0.186,0.198,0.287v6.703c0,15.243,5.001,22.865,15.007,22.865c10.109,0,15.165-7.598,15.165-22.788V43.645
		c-0.105-3.878-0.682-5.814-1.729-5.814c-0.42,0-0.76,0.419-1.021,1.257c-3.877-0.681-7.858-1.021-11.944-1.021
		c-0.157,0-0.367,0-0.628,0c0.104-0.159,0.208-0.498,0.314-1.022c0.471-0.681,0.707-3.405,0.707-8.172
		c0-0.628-0.026-1.229-0.078-1.807h4.793c1.729,1.624,3.587,3.563,5.579,5.814c1.676,1.678,3.64,3.143,5.894,4.401
		c2.251,0.996,4.268,1.492,6.05,1.492c1.047,0,1.572-0.208,1.572-0.627C50.053,37.569,49.396,37.15,48.087,36.888z M16.876,60.892
		c0.119-0.177,0.972-0.117,1.484-0.166c0.059,0.305,0.178,0.611,0.163,0.913c-0.043,0.891-0.242,1.7-1.823,0.749
		c-0.415-0.249-1.179,0.178-1.339-0.399c-0.039-0.409-0.079-0.819-0.118-1.228C15.756,60.89,16.052,62.125,16.876,60.892z
		 M16.604,71.041c-0.124-0.259-0.063-0.672,0.524-0.743c0.616-0.074,0.754,0.266,0.759,0.588c0.017,1.383,0.007,2.768,0.007,4.592
		c-0.667-0.497-0.921-0.594-0.941-0.713C16.736,73.529,17.19,72.269,16.604,71.041z M34.698,79.329
		c0.103-0.43-0.187-0.932,0.471-1.261C34.969,78.481,35.746,79.069,34.698,79.329z M37.167,75.927
		c-0.042-0.108-0.097-0.198-0.1-0.289c0-0.021,0.171-0.045,0.264-0.067c0.016,0.046,0.068,0.104,0.045,0.141
		C37.331,75.784,37.247,75.848,37.167,75.927z M33.889,43.381c0.167-0.006,0.341-0.01,0.509-0.016
		c0.09,0.463,0.177,0.927,0.265,1.389c0.257,0.794-0.816,1.619,0.11,2.398c-0.594,1.07,0.251,2.14,0.005,3.208
		c-0.125,0.55,0.191,1.161-0.483,1.632c0.087-1.019-0.235-2-0.519-2.987C33.717,47.129,33.538,45.252,33.889,43.381z M33.447,52.645
		c0.049-0.166,0.368-0.296,0.561-0.441c-0.048,0.511-0.097,1.021-0.146,1.534c0.033,0.776,0.064,1.554,0.1,2.33
		c-0.016,0.472-0.029,0.941-0.042,1.413c0.02,0.169,0.042,0.339,0.061,0.509c0.023,0.275,0.045,0.552,0.071,0.829
		c-0.207-0.139-0.597-0.277-0.597-0.415C33.453,56.483,32.915,54.562,33.447,52.645z M30.623,64.358c0-0.317-0.016-0.623,0.46-0.796
		c-0.323-0.375-0.531-0.773-0.505-1.217c0.022-0.33,0.045-0.659,0.067-0.988c0.042-0.245,0.071-0.493,0.445-0.622l0.139,0.009
		c-0.342,0.561,0.21,1.038,0.313,1.557c0.026,0.216,0.054,0.434,0.081,0.647c-0.095,0.239-0.104,0.51-0.519,0.613
		c0.03,0.709,0.058,1.417,0.09,2.123c0.251,0.695-0.396,1.476,0.574,2.498c0.013-1.097,1.048-1.678,0.558-2.515
		c-0.007-0.7-0.017-1.399-0.022-2.103c-0.014-0.451-0.029-0.906-0.042-1.36c0.032-0.086,0.087-0.162,0.167-0.231
		c0.284,0.009,0.564,0.015,0.848,0.023c0.032,0.202,0.067,0.407,0.1,0.61c-0.548,0.286-0.561,0.598-0.093,0.933
		c0.509,0.961-0.839,1.939,0.058,2.895c0.039,1.425-0.467,2.763-1.028,4.132c-0.536,1.302-0.709,2.712,0.158,4.043
		c0.193,0.636-0.645,1.311,0.231,2.019c0.21-0.705,0.397-1.334,0.583-1.963c0.197-1.82-0.635-3.678,0.526-5.468
		c0.557-0.859,0.483-1.816,0.526-2.748c0.26-0.013,0.522-0.022,0.783-0.034c1.286,0.493,0.851-0.265,0.952-0.633
		c-1.258-1.514,0.134-3.188-0.784-5.169c0.042,1.537-0.6,2.546-1.044,3.593c-0.148-0.21-0.297-0.419-0.445-0.629
		c0.007-0.319,0.017-0.639,0.022-0.96c0.316-0.615,0.733-1.217,0.469-1.901c0.651-0.542,0.665-1.183,0.582-1.84
		c0.616-1.048,0.209-2.146,0.313-3.22c-1.271-0.616,0.051-1.476-0.419-2.165c0.799-1.869,1.047-3.789,1.116-5.727
		c0.07-0.205,0.141-0.409,0.208-0.616c0.142,0.001,0.284,0.004,0.426,0.009c0.188,0.543,0.374,1.087,0.613,1.782
		c0.578-0.702,0.546-1.363,1.227-1.792c-0.178-0.74,0.399-1.554-0.454-2.229c-0.171-0.101-0.342-0.202-0.516-0.303
		c-0.293-0.708,0.941-0.961,0.97-1.57c0.155,0,0.306,0.001,0.456,0.001c0.729,0.948-0.39,1.928,0.096,2.88
		c-0.158,0.414,0.144,0.926-0.544,1.224c0.023,0.723,0.045,1.446,0.067,2.17c-0.02,1.679,0.968,3.397-0.46,5.041
		c-0.042-0.209-0.081-0.408-0.123-0.606c0.222-1.271-0.268-2.447-1.009-3.606c-0.189,1.32,0.461,2.618,0.174,3.93
		c-0.281,0.797,1.164,1.196,0.951,1.979c-0.151,1.214-0.303,2.43-0.49,3.938c0.47-0.519,0.664-0.732,0.861-0.946
		c0.954,1.804-0.616,3.395-1.061,5.056c-0.267,0.997-1.618,1.833,0.551,2.495c0.288,0.089,0.335,0.298,0.313,0.531
		c-0.125,1.263-1.295,2.641-2.853,3.418c-0.159,0.078-0.065,0.396-0.091,0.604c-0.274,0.699-0.603,1.392-0.805,2.102
		c-0.126,0.433-0.323,0.994,0.796,0.99c0.264,0.446-0.777,1.347,0.973,1.303c0.3-0.006,0.513,0.501,0.239,0.639
		c-0.948,0.483-0.416,1.394-1.248,1.881c0.106-1.016-0.329-1.957-0.913-2.907c-0.078,1.414,0.181,2.819,0.003,4.219
		c0,0.078,0.01,0.156,0.029,0.232c-0.394,0.142-0.449,0.391-0.468,0.657c-0.751-0.292-0.166-0.961-0.789-1.341
		c-0.651,0.238-0.551,0.659-0.551,1.051c-0.001,0-0.001,0-0.002,0c0.299,0.316,0.598,0.634,0.894,0.95
		c0,0.088-0.013,0.175-0.032,0.262c-0.123,0.22-0.242,0.437-0.365,0.654c-0.174,0.111-0.348,0.222-0.519,0.334
		c0.113,0.602,0.222,1.201,0.332,1.803c-1.938-0.063-0.326-1.073-0.835-1.517c0.168-0.097,0.335-0.194,0.502-0.291
		c0.004-0.731,0.007-1.463,0.01-2.195c-0.298,0-0.597,0.003-0.894,0.003c-0.139,0.726-0.277,1.454-0.415,2.184
		c-0.025,0.688-0.051,1.376-0.077,2.065c-3.978,1.651-8.079,1.27-12.211,0.348c-0.077-0.29-0.153-0.583-0.229-0.875
		c-0.289,0.146-0.575,0.292-0.864,0.437c-0.888-0.64-1.915-1.201-2.43-2.053c2.42-0.925,0.642-2.426,1.376-3.73
		c-0.92,0.257-0.271,0.83-1.03,0.979c0.198-1.301-1.311-2.629,0.139-3.762c3.14,1.3,0.153,3.523,1.879,5.144
		c0.305-1.377-0.064-2.812,0.379-4.11c1.019-2.986,1.241-5.914,0.085-8.887c-0.081-0.206,0.074-0.568,0.309-0.705
		c1.437-0.863,1.073-1.976,0.928-3.045c-0.163-1.208-0.181-2.4,0.313-3.577c0.23-0.854,1.055-1.719-0.098-2.638
		c-0.637,0.685,0.104,1.679-1.232,2.054c-0.358-1.316,0.324-2.434,1.378-3.479c0.737-0.682,0.327-1.458,0.374-2.197
		c-0.027-0.464,0.316-0.979-0.328-1.459c-0.326,0.333-0.558,0.571-0.847,0.868c0.036-1.22,0.036-1.22,1.664-1.657
		c0.155,0.397-0.2,0.915,0.74,1.328c1.053-2.142,1.667-4.192,1.219-6.359c0.106,0.002,0.212-0.001,0.319-0.012
		c0.596,0.561,1.06,1.166,0.725,1.878c-0.681,1.447-0.072,2.783,0.645,4.115c-0.355,0.153-0.414,0.397-0.407,0.662
		c0.625,1.4-1.526,2.641-0.486,4.068c-0.14,0.328-0.282,0.658-0.424,0.987c-0.024,0.409-0.05,0.817-0.074,1.226
		c-0.624,0.031-0.853,0.283-0.802,0.691c0.02,0.398-0.295,0.83,0.311,1.354c0.061-0.476,0.1-0.78,0.137-1.087
		c0.248-0.097,0.495-0.196,0.743-0.293c0.171,0.726,0.393,1.453-0.267,2.126c-0.283,0.628,0.346,1.382-0.535,1.928
		c0,0,0.001,0.001,0.001,0.001c0.123,0.59-0.356,1.295,0.585,1.761c0.982-0.48,0.466-1.325,1.16-1.816
		c0.19,0.022,0.377,0.045,0.567,0.068c0.314,1.528-1.111,2.882-0.935,4.397c1.266-0.458,1.893-1.206,2.031-2.174l-0.007-0.02
		c0.074,0.214,0.148,0.427,0.223,0.639c-0.004,1.491-0.152,2.994,0.854,4.39c-0.551-0.004-1.099-0.006-1.65-0.009
		c-0.21-0.605,0.88-1.202,0.089-1.809c-1.14,0.652-0.007,1.953-1.553,2.475c0.029,0.431,0.061,0.86,0.093,1.292
		c0.212,1.104-1.44,2.09-0.52,3.404c0.549-0.724,1.41-1.152,1.303-1.903c0.174,0.217,0.348,0.436,0.525,0.653
		c-0.002,0.123-0.009,0.248-0.013,0.371c-0.012,0.345-0.074,0.698,0.423,0.93l-0.017-0.008c-0.222,1.518-0.867,3.016-0.79,4.658
		c1.075-0.274,0.588-0.975,1.257-1.193c0.155-1.156,0.312-2.31,0.466-3.465c0.573-0.028,0.92-0.216,0.91-0.644
		c0.019-0.29,0.039-0.581,0.055-0.873c0.277-0.541,0.551-1.084,0.822-1.628c0-0.222-0.003-0.445-0.006-0.667
		c0.006-0.199,0.01-0.4,0.013-0.601c0.02-0.102,0.033-0.204,0.039-0.31c1.425-1.146,1.425-1.371,0.006-1.619
		c-0.341-1.128,1.045-2.241,0.055-3.375c0.135-0.243,0.219-0.675,0.417-0.701C30.942,66.445,30.629,65.35,30.623,64.358z
		 M26.99,61.179c-0.026,0.659,0.325,1.104,1.386,1.125c0.3-0.003,0.6-0.005,0.899-0.007c-0.422,0.476-0.638,0.986-0.558,1.548
		c-0.116,0.009-0.232,0.02-0.352,0.029c-0.551-0.214-0.02-0.968-0.997-0.974c-0.374-0.001-0.748-0.006-1.122-0.011
		c-0.28-0.552,1.192-1.419-0.628-1.695c-0.074-0.105-0.148-0.211-0.219-0.317c0.093-0.212-0.026-0.348-0.313-0.422l-0.048,0.007
		c0.048-0.326,0.099-0.652,0.148-0.979C26.413,59.728,27.025,60.283,26.99,61.179z"/>
	<path fill-rule="evenodd" clip-rule="evenodd" d="M31.148,77.722c0.02,0.238-0.106,0.584,0.438,0.595
		c0.574,0.01,0.661-0.351,0.764-0.574c0.091-0.392-0.083-0.582-0.574-0.554C31.332,77.218,31.126,77.426,31.148,77.722z"/>
	<path fill-rule="evenodd" clip-rule="evenodd" d="M30.626,73.984c0.209,0.777,0.203,1.549-0.094,2.328
		c1.073-0.669,1.405-1.427,0.568-2.337c0.639-1.235,0.3-2.53,0.483-3.794c0.5-0.378,1.019-0.752,0.667-1.377
		c-0.916,0.27-1.487,0.688-1.644,1.354C31.004,71.432,29.507,72.711,30.626,73.984z"/>
	<path fill-rule="evenodd" clip-rule="evenodd" d="M29.481,81.281c0.906-1.105,0.748-2.224,0-3.352
		C29.481,79.048,29.481,80.165,29.481,81.281z"/>
	<path fill-rule="evenodd" clip-rule="evenodd" d="M36.394,58.708c-0.114,1.599,0.303,3.179,0.264,4.776
		C37.641,61.87,37.399,60.278,36.394,58.708z"/>
	<path fill-rule="evenodd" clip-rule="evenodd" d="M29.849,81.985c-0.09-0.027-0.242,0.049-0.368,0.08
		c0.078,0.105,0.155,0.212,0.229,0.318c0.104-0.051,0.21-0.101,0.32-0.155C29.968,82.14,29.939,82.012,29.849,81.985z"/>
	<path fill-rule="evenodd" clip-rule="evenodd" d="M23.816,68.919c0.008,0.003,0.012,0.009,0.021,0.013
		c-0.001-0.01,0.001-0.018,0-0.027c-0.007,0.003-0.013,0.006-0.019,0.009C23.817,68.915,23.816,68.916,23.816,68.919z"/>
	<rect x="26.086" y="80.599" fill-rule="evenodd" clip-rule="evenodd" width="0.007" height="0.007"/>
	<path fill-rule="evenodd" clip-rule="evenodd" d="M22.44,64.508c0.008-0.006,0.011-0.011,0.018-0.015
		c-0.006-0.004-0.012-0.009-0.019-0.014C22.439,64.489,22.439,64.497,22.44,64.508z"/>
	<rect x="23.822" y="72.395" fill-rule="evenodd" clip-rule="evenodd" width="0.001" height="0.004"/>
	<path fill-rule="evenodd" clip-rule="evenodd" d="M21.548,63.877c0.008,0,0.014,0,0.021,0c0,0,0,0,0-0.001
		c-0.007-0.005-0.014-0.01-0.021-0.014C21.549,63.867,21.548,63.872,21.548,63.877z"/>
	<path fill-rule="evenodd" clip-rule="evenodd" d="M31.367,79.901c0.059,0.025,0.116,0.051,0.174,0.077c0.004,0,0.007,0,0.012,0
		c0-0.005,0-0.008,0.001-0.012C31.49,79.946,31.429,79.926,31.367,79.901z"/>
	<polygon fill-rule="evenodd" clip-rule="evenodd" points="32.447,79.976 32.459,79.976 32.447,79.965 	"/>
	<polygon fill-rule="evenodd" clip-rule="evenodd" points="32.437,82.176 32.438,82.176 32.437,82.171 	"/>
	<polygon fill-rule="evenodd" clip-rule="evenodd" points="38.363,47.149 38.363,47.141 38.355,47.147 38.356,47.152 	"/>
	<path fill-rule="evenodd" clip-rule="evenodd" d="M31.103,63.562c0-0.003,0-0.006,0-0.01c-0.009,0.003-0.011,0.008-0.02,0.011
		c0,0.002,0.003,0.004,0.004,0.006C31.094,63.566,31.097,63.563,31.103,63.562z"/>
</g>
<g>
	<path d="M189.471,15.515c0.732,0,1.1,0.184,1.1,0.55c0,0.314-0.21,0.629-0.629,0.943c-3.98,1.886-8.879,3.039-14.693,3.457
		c0.366,1.1,0.602,2.463,0.707,4.086h20.037c1.31,0.105,1.965,0.499,1.965,1.179c0,0.891-0.551,1.336-1.65,1.336h-12.494
		c1.415,1.1,2.908,2.463,4.479,4.086c1.729,1.52,3.325,2.698,4.794,3.536c1.571,0.838,3.221,1.572,4.949,2.2
		c1.31,0.263,1.965,0.681,1.965,1.257c0,0.42-0.524,0.628-1.571,0.628c-1.781,0-3.799-0.497-6.052-1.493
		c-2.252-1.257-4.217-2.723-5.893-4.4c-1.991-2.251-3.85-4.19-5.578-5.814h-4.793c0.051,0.577,0.078,1.179,0.078,1.807
		c0,4.767-0.236,7.492-0.707,8.172c-0.105,0.524-0.21,0.864-0.314,1.021c0.262,0,0.471,0,0.629,0c4.086,0,8.066,0.341,11.943,1.021
		c0.262-0.837,0.602-1.257,1.021-1.257c1.047,0,1.623,1.938,1.729,5.815v21.686c0,15.19-5.056,22.787-15.165,22.787
		c-10.007,0-15.008-7.621-15.008-22.865V42.388c0-3.09,0.55-4.636,1.649-4.636c0.366,0,0.629,0.446,0.787,1.336
		c3.928-0.628,7.83-0.969,11.707-1.021c-0.105-0.366-0.21-0.733-0.314-1.1c-0.629-1.1-0.943-3.797-0.943-8.093
		c0-0.68,0.026-1.283,0.079-1.807h-4.479c-0.576,0.734-1.152,1.598-1.729,2.593c-1.362,2.986-3.248,5.003-5.656,6.05
		c-2.516,1.52-6,2.62-10.451,3.3c-0.682,0-1.021-0.157-1.021-0.471c0-0.262,0.34-0.498,1.021-0.708
		c2.043-0.314,4.164-1.073,6.365-2.278c2.618-1.415,4.714-3.091,6.285-5.029c1.1-1.466,2.2-2.619,3.301-3.457h-12.965
		c-1.101,0-1.65-0.445-1.65-1.336c0-0.68,0.732-1.073,2.2-1.179h18.937c0.104-1.729,0.235-3.064,0.393-4.007
		c-0.943,0.053-1.834,0.079-2.672,0.079c-4.662,0-8.146-0.079-10.449-0.236c-1.572-0.157-2.357-0.523-2.357-1.1
		c0-0.261,0.707-0.471,2.121-0.628C173.729,18.554,183.394,17.506,189.471,15.515z M187.428,41.523
		c-3.877-0.629-7.807-0.943-11.787-0.943c-4.191,0-8.328,0.314-12.414,0.943c0.051,0.314,0.078,0.603,0.078,0.864v4.792h24.045
		v-3.535C187.35,42.808,187.375,42.1,187.428,41.523z M187.35,49.616h-24.045v15.479c0,13.516,3.955,20.273,11.865,20.273
		c8.119,0,12.18-6.733,12.18-20.195V49.616z"/>
</g>
</svg>
